<svg width="250" height="164" viewBox="0 0 250 164" fill="none" xmlns="http://www.w3.org/2000/svg">
<rect width="250" height="164" rx="3" fill="#F4F4F4"/>
<path d="M32.104 32.056H39.904V33.512H36.875V41H35.133V33.512H32.104V32.056ZM41.5773 36.528C41.5773 35.8607 41.6856 35.2453 41.9023 34.682C42.1189 34.1187 42.4266 33.629 42.8253 33.213C43.2153 32.8057 43.6919 32.485 44.2553 32.251C44.8186 32.017 45.4469 31.9 46.1403 31.9C46.8163 31.9 47.4316 32.017 47.9863 32.251C48.5496 32.485 49.0306 32.8057 49.4293 33.213C49.8279 33.629 50.1356 34.1187 50.3523 34.682C50.5776 35.2453 50.6903 35.8607 50.6903 36.528C50.6903 37.1953 50.5776 37.8107 50.3523 38.374C50.1356 38.9373 49.8279 39.4227 49.4293 39.83C49.0306 40.246 48.5496 40.571 47.9863 40.805C47.4316 41.039 46.8163 41.156 46.1403 41.156C45.4469 41.156 44.8186 41.039 44.2553 40.805C43.6919 40.571 43.2153 40.246 42.8253 39.83C42.4266 39.4227 42.1189 38.9373 41.9023 38.374C41.6856 37.8107 41.5773 37.1953 41.5773 36.528ZM43.3713 36.528C43.3713 36.9873 43.4363 37.4077 43.5663 37.789C43.7049 38.1703 43.8956 38.4997 44.1383 38.777C44.3723 39.0543 44.6583 39.271 44.9963 39.427C45.3429 39.583 45.7243 39.661 46.1403 39.661C46.5563 39.661 46.9333 39.583 47.2713 39.427C47.6093 39.271 47.8996 39.05 48.1423 38.764C48.3763 38.4867 48.5583 38.1573 48.6883 37.776C48.8269 37.3947 48.8963 36.9787 48.8963 36.528C48.8963 36.0773 48.8269 35.6613 48.6883 35.28C48.5583 34.8987 48.3763 34.565 48.1423 34.279C47.8996 34.0017 47.6093 33.785 47.2713 33.629C46.9333 33.473 46.5563 33.395 46.1403 33.395C45.7243 33.395 45.3429 33.473 44.9963 33.629C44.6583 33.785 44.3723 34.0017 44.1383 34.279C43.8956 34.5563 43.7049 34.89 43.5663 35.28C43.4363 35.6613 43.3713 36.0773 43.3713 36.528ZM57.8335 32.056H62.0585C63.0552 32.056 63.7919 32.264 64.2685 32.68C64.7452 33.0873 64.9835 33.6593 64.9835 34.396C64.9835 34.8207 64.8709 35.2063 64.6455 35.553C64.4202 35.8997 64.0649 36.1423 63.5795 36.281C64.1342 36.3763 64.5675 36.6147 64.8795 36.996C65.1915 37.3773 65.3475 37.828 65.3475 38.348C65.3475 38.7293 65.2825 39.0847 65.1525 39.414C65.0225 39.7347 64.8319 40.012 64.5805 40.246C64.3292 40.48 64.0129 40.6663 63.6315 40.805C63.2502 40.935 62.8125 41 62.3185 41H57.8335V32.056ZM59.5885 37.061V39.622H62.0715C62.5915 39.622 62.9729 39.5007 63.2155 39.258C63.4582 39.0153 63.5795 38.6947 63.5795 38.296C63.5795 37.9233 63.4539 37.6243 63.2025 37.399C62.9599 37.1737 62.5872 37.061 62.0845 37.061H59.5885ZM59.5885 33.434V35.735H61.8245C62.3099 35.735 62.6652 35.6223 62.8905 35.397C63.1245 35.163 63.2415 34.8683 63.2415 34.513C63.2415 34.1923 63.1332 33.9323 62.9165 33.733C62.7085 33.5337 62.3489 33.434 61.8375 33.434H59.5885ZM68.1688 32.056H69.9238V37.386C69.9238 38.1227 70.0971 38.686 70.4438 39.076C70.7904 39.466 71.3191 39.661 72.0298 39.661C72.7318 39.661 73.2561 39.466 73.6028 39.076C73.9494 38.686 74.1228 38.1227 74.1228 37.386V32.056H75.8778V37.412C75.8778 38.1053 75.7824 38.6903 75.5918 39.167C75.4011 39.6437 75.1368 40.0293 74.7988 40.324C74.4608 40.6187 74.0534 40.831 73.5768 40.961C73.1088 41.091 72.5931 41.156 72.0298 41.156C71.4664 41.156 70.9464 41.091 70.4698 40.961C70.0018 40.831 69.5988 40.6187 69.2608 40.324C68.9141 40.0293 68.6454 39.6437 68.4548 39.167C68.2641 38.6903 68.1688 38.1053 68.1688 37.412V32.056ZM79.1585 32.056H80.9005V41H79.1585V32.056ZM84.3551 32.056H86.0971V39.531H90.3741V41H84.3551V32.056ZM93.2335 32.056H96.3665C97.1551 32.056 97.8485 32.1687 98.4465 32.394C99.0445 32.6193 99.5471 32.927 99.9545 33.317C100.353 33.7157 100.652 34.188 100.851 34.734C101.059 35.28 101.163 35.878 101.163 36.528C101.163 37.178 101.059 37.776 100.851 38.322C100.652 38.868 100.353 39.336 99.9545 39.726C99.5471 40.1247 99.0445 40.4367 98.4465 40.662C97.8485 40.8873 97.1551 41 96.3665 41H93.2335V32.056ZM94.9755 33.499V39.557H96.3015C96.8561 39.557 97.3285 39.4747 97.7185 39.31C98.1085 39.1453 98.4291 38.9243 98.6805 38.647C98.9231 38.3697 99.0965 38.049 99.2005 37.685C99.3131 37.321 99.3695 36.9353 99.3695 36.528C99.3695 36.1207 99.3131 35.735 99.2005 35.371C99.0965 35.007 98.9231 34.6863 98.6805 34.409C98.4291 34.1317 98.1085 33.9107 97.7185 33.746C97.3285 33.5813 96.8561 33.499 96.3015 33.499H94.9755ZM107.868 36.528C107.868 35.8607 107.977 35.2453 108.193 34.682C108.41 34.1187 108.718 33.629 109.116 33.213C109.506 32.8057 109.983 32.485 110.546 32.251C111.11 32.017 111.738 31.9 112.431 31.9C113.107 31.9 113.723 32.017 114.277 32.251C114.841 32.485 115.322 32.8057 115.72 33.213C116.119 33.629 116.427 34.1187 116.643 34.682C116.869 35.2453 116.981 35.8607 116.981 36.528C116.981 37.1953 116.869 37.8107 116.643 38.374C116.427 38.9373 116.119 39.4227 115.72 39.83C115.322 40.246 114.841 40.571 114.277 40.805C113.723 41.039 113.107 41.156 112.431 41.156C111.738 41.156 111.11 41.039 110.546 40.805C109.983 40.571 109.506 40.246 109.116 39.83C108.718 39.4227 108.41 38.9373 108.193 38.374C107.977 37.8107 107.868 37.1953 107.868 36.528ZM109.662 36.528C109.662 36.9873 109.727 37.4077 109.857 37.789C109.996 38.1703 110.187 38.4997 110.429 38.777C110.663 39.0543 110.949 39.271 111.287 39.427C111.634 39.583 112.015 39.661 112.431 39.661C112.847 39.661 113.224 39.583 113.562 39.427C113.9 39.271 114.191 39.05 114.433 38.764C114.667 38.4867 114.849 38.1573 114.979 37.776C115.118 37.3947 115.187 36.9787 115.187 36.528C115.187 36.0773 115.118 35.6613 114.979 35.28C114.849 34.8987 114.667 34.565 114.433 34.279C114.191 34.0017 113.9 33.785 113.562 33.629C113.224 33.473 112.847 33.395 112.431 33.395C112.015 33.395 111.634 33.473 111.287 33.629C110.949 33.785 110.663 34.0017 110.429 34.279C110.187 34.5563 109.996 34.89 109.857 35.28C109.727 35.6613 109.662 36.0773 109.662 36.528ZM119.957 32.056H123.792C124.876 32.056 125.695 32.303 126.249 32.797C126.813 33.2823 127.094 33.9627 127.094 34.838C127.094 35.4793 126.934 36.0383 126.613 36.515C126.301 36.983 125.833 37.3253 125.209 37.542L127.432 41H125.534L123.48 37.75H121.699V41H119.957V32.056ZM121.699 33.46V36.385H123.714C124.252 36.385 124.655 36.242 124.923 35.956C125.192 35.6613 125.326 35.293 125.326 34.851C125.326 34.4177 125.188 34.0797 124.91 33.837C124.633 33.5857 124.234 33.46 123.714 33.46H121.699ZM133.591 32.056H141.391V33.512H138.362V41H136.62V33.512H133.591V32.056ZM143.064 36.528C143.064 35.8607 143.173 35.2453 143.389 34.682C143.606 34.1187 143.914 33.629 144.312 33.213C144.702 32.8057 145.179 32.485 145.742 32.251C146.306 32.017 146.934 31.9 147.627 31.9C148.303 31.9 148.919 32.017 149.473 32.251C150.037 32.485 150.518 32.8057 150.916 33.213C151.315 33.629 151.623 34.1187 151.839 34.682C152.065 35.2453 152.177 35.8607 152.177 36.528C152.177 37.1953 152.065 37.8107 151.839 38.374C151.623 38.9373 151.315 39.4227 150.916 39.83C150.518 40.246 150.037 40.571 149.473 40.805C148.919 41.039 148.303 41.156 147.627 41.156C146.934 41.156 146.306 41.039 145.742 40.805C145.179 40.571 144.702 40.246 144.312 39.83C143.914 39.4227 143.606 38.9373 143.389 38.374C143.173 37.8107 143.064 37.1953 143.064 36.528ZM144.858 36.528C144.858 36.9873 144.923 37.4077 145.053 37.789C145.192 38.1703 145.383 38.4997 145.625 38.777C145.859 39.0543 146.145 39.271 146.483 39.427C146.83 39.583 147.211 39.661 147.627 39.661C148.043 39.661 148.42 39.583 148.758 39.427C149.096 39.271 149.387 39.05 149.629 38.764C149.863 38.4867 150.045 38.1573 150.175 37.776C150.314 37.3947 150.383 36.9787 150.383 36.528C150.383 36.0773 150.314 35.6613 150.175 35.28C150.045 34.8987 149.863 34.565 149.629 34.279C149.387 34.0017 149.096 33.785 148.758 33.629C148.42 33.473 148.043 33.395 147.627 33.395C147.211 33.395 146.83 33.473 146.483 33.629C146.145 33.785 145.859 34.0017 145.625 34.279C145.383 34.5563 145.192 34.89 145.053 35.28C144.923 35.6613 144.858 36.0773 144.858 36.528ZM159.321 32.056H163.546C164.542 32.056 165.279 32.264 165.756 32.68C166.232 33.0873 166.471 33.6593 166.471 34.396C166.471 34.8207 166.358 35.2063 166.133 35.553C165.907 35.8997 165.552 36.1423 165.067 36.281C165.621 36.3763 166.055 36.6147 166.367 36.996C166.679 37.3773 166.835 37.828 166.835 38.348C166.835 38.7293 166.77 39.0847 166.64 39.414C166.51 39.7347 166.319 40.012 166.068 40.246C165.816 40.48 165.5 40.6663 165.119 40.805C164.737 40.935 164.3 41 163.806 41H159.321V32.056ZM161.076 37.061V39.622H163.559C164.079 39.622 164.46 39.5007 164.703 39.258C164.945 39.0153 165.067 38.6947 165.067 38.296C165.067 37.9233 164.941 37.6243 164.69 37.399C164.447 37.1737 164.074 37.061 163.572 37.061H161.076ZM161.076 33.434V35.735H163.312C163.797 35.735 164.152 35.6223 164.378 35.397C164.612 35.163 164.729 34.8683 164.729 34.513C164.729 34.1923 164.62 33.9323 164.404 33.733C164.196 33.5337 163.836 33.434 163.325 33.434H161.076ZM169.656 32.056H171.411V37.386C171.411 38.1227 171.584 38.686 171.931 39.076C172.278 39.466 172.806 39.661 173.517 39.661C174.219 39.661 174.743 39.466 175.09 39.076C175.437 38.686 175.61 38.1227 175.61 37.386V32.056H177.365V37.412C177.365 38.1053 177.27 38.6903 177.079 39.167C176.888 39.6437 176.624 40.0293 176.286 40.324C175.948 40.6187 175.541 40.831 175.064 40.961C174.596 41.091 174.08 41.156 173.517 41.156C172.954 41.156 172.434 41.091 171.957 40.961C171.489 40.831 171.086 40.6187 170.748 40.324C170.401 40.0293 170.133 39.6437 169.942 39.167C169.751 38.6903 169.656 38.1053 169.656 37.412V32.056ZM183.062 37.568L179.773 32.056H181.749L183.946 35.904H183.998L186.312 32.056H188.158L184.817 37.516V41H183.062V37.568ZM192.122 37.997C192.122 37.7023 192.152 37.4423 192.213 37.217C192.282 36.9917 192.369 36.7923 192.473 36.619C192.577 36.4543 192.694 36.307 192.824 36.177C192.963 36.047 193.106 35.93 193.253 35.826L193.604 35.566C193.812 35.4187 193.99 35.2583 194.137 35.085C194.284 34.9117 194.358 34.6863 194.358 34.409C194.358 34.0797 194.245 33.8067 194.02 33.59C193.795 33.3647 193.478 33.252 193.071 33.252C192.802 33.252 192.573 33.2953 192.382 33.382C192.2 33.46 192.053 33.5683 191.94 33.707C191.819 33.8457 191.728 34.006 191.667 34.188C191.615 34.37 191.589 34.5607 191.589 34.76H189.99C189.99 34.396 190.046 34.0407 190.159 33.694C190.28 33.3473 190.467 33.0397 190.718 32.771C190.961 32.511 191.277 32.303 191.667 32.147C192.057 31.9823 192.525 31.9 193.071 31.9C193.513 31.9 193.916 31.9563 194.28 32.069C194.644 32.173 194.956 32.329 195.216 32.537C195.476 32.745 195.675 33.0007 195.814 33.304C195.961 33.6073 196.035 33.9497 196.035 34.331C196.035 34.591 196.005 34.8207 195.944 35.02C195.883 35.2193 195.801 35.397 195.697 35.553C195.593 35.7177 195.472 35.8607 195.333 35.982C195.203 36.1033 195.069 36.216 194.93 36.32L194.579 36.567C194.336 36.7403 194.128 36.931 193.955 37.139C193.782 37.3383 193.695 37.6027 193.695 37.932V38.309H192.122V37.997ZM192.044 39.284H193.773V41H192.044V39.284Z" fill="#242424"/>
<path d="M33.924 62.348C33.924 62.894 34.119 63.336 34.509 63.674C34.9077 64.0033 35.458 64.168 36.16 64.168C36.8967 64.168 37.46 64.025 37.85 63.739C38.2487 63.4443 38.448 63.0327 38.448 62.504C38.448 62.2613 38.3917 62.062 38.279 61.906C38.175 61.7413 38.032 61.6027 37.85 61.49C37.6593 61.3773 37.4383 61.2907 37.187 61.23C36.9443 61.1607 36.6887 61.1 36.42 61.048L35.848 60.944C35.484 60.8833 35.1243 60.8053 34.769 60.71C34.4137 60.6147 34.0973 60.476 33.82 60.294C33.5427 60.1207 33.3173 59.891 33.144 59.605C32.9707 59.319 32.884 58.9507 32.884 58.5C32.884 58.1187 32.962 57.772 33.118 57.46C33.274 57.1393 33.495 56.862 33.781 56.628C34.067 56.4027 34.4093 56.225 34.808 56.095C35.2153 55.965 35.666 55.9 36.16 55.9C36.6367 55.9 37.0743 55.9607 37.473 56.082C37.8803 56.1947 38.2313 56.3637 38.526 56.589C38.812 56.8143 39.033 57.0917 39.189 57.421C39.3537 57.7503 39.436 58.1273 39.436 58.552H38.24C38.24 58.006 38.0407 57.5943 37.642 57.317C37.252 57.031 36.758 56.888 36.16 56.888C35.874 56.888 35.601 56.9227 35.341 56.992C35.0897 57.0527 34.873 57.1437 34.691 57.265C34.5003 57.395 34.3487 57.5553 34.236 57.746C34.132 57.928 34.08 58.1447 34.08 58.396C34.08 58.6473 34.1363 58.8553 34.249 59.02C34.3703 59.1847 34.5307 59.319 34.73 59.423C34.9293 59.527 35.159 59.6137 35.419 59.683C35.6877 59.7437 35.9693 59.8 36.264 59.852L36.836 59.956C37.1913 60.0253 37.538 60.1077 37.876 60.203C38.2227 60.2983 38.5303 60.437 38.799 60.619C39.0677 60.801 39.2843 61.0393 39.449 61.334C39.6137 61.6287 39.696 62.0013 39.696 62.452C39.696 62.8593 39.6137 63.2277 39.449 63.557C39.293 63.8863 39.0677 64.168 38.773 64.402C38.4697 64.6447 38.097 64.831 37.655 64.961C37.213 65.091 36.7147 65.156 36.16 65.156C35.0593 65.156 34.21 64.9047 33.612 64.402C33.0227 63.8993 32.728 63.2147 32.728 62.348H33.924ZM41.4177 55.484H42.5617V57.46C42.5617 57.6767 42.5574 57.9843 42.5487 58.383C42.5487 58.773 42.5357 59.176 42.5097 59.592H42.5617C42.7437 59.228 42.9994 58.955 43.3287 58.773C43.658 58.591 44.061 58.5 44.5377 58.5C44.8497 58.5 45.1444 58.5477 45.4217 58.643C45.7077 58.7297 45.959 58.877 46.1757 59.085C46.3924 59.293 46.5614 59.566 46.6827 59.904C46.8127 60.242 46.8777 60.658 46.8777 61.152V65H45.7337V61.308C45.7337 60.632 45.5994 60.1597 45.3307 59.891C45.0707 59.6223 44.7197 59.488 44.2777 59.488C44.035 59.488 43.8097 59.54 43.6017 59.644C43.3937 59.748 43.2117 59.891 43.0557 60.073C42.8997 60.2637 42.7784 60.4977 42.6917 60.775C42.605 61.0437 42.5617 61.347 42.5617 61.685V65H41.4177V55.484ZM48.2876 61.828C48.2876 61.3253 48.3656 60.8703 48.5216 60.463C48.6776 60.047 48.8942 59.6917 49.1716 59.397C49.4402 59.111 49.7652 58.89 50.1466 58.734C50.5279 58.578 50.9482 58.5 51.4076 58.5C51.8842 58.5 52.3132 58.578 52.6946 58.734C53.0846 58.89 53.4182 59.111 53.6956 59.397C53.9642 59.6917 54.1679 60.047 54.3066 60.463C54.4539 60.8703 54.5276 61.3253 54.5276 61.828C54.5276 62.3393 54.4496 62.7987 54.2936 63.206C54.1376 63.6133 53.9252 63.96 53.6566 64.246C53.3792 64.5407 53.0456 64.766 52.6556 64.922C52.2742 65.078 51.8582 65.156 51.4076 65.156C50.9222 65.156 50.4889 65.078 50.1076 64.922C49.7262 64.766 49.4012 64.5407 49.1326 64.246C48.8552 63.96 48.6429 63.6133 48.4956 63.206C48.3569 62.7987 48.2876 62.3393 48.2876 61.828ZM49.4836 61.828C49.4836 62.1833 49.5269 62.504 49.6136 62.79C49.7089 63.076 49.8432 63.3187 50.0166 63.518C50.1812 63.726 50.3806 63.8863 50.6146 63.999C50.8572 64.1117 51.1216 64.168 51.4076 64.168C51.6936 64.168 51.9536 64.1117 52.1876 63.999C52.4216 63.8863 52.6252 63.726 52.7986 63.518C52.9632 63.3187 53.0932 63.076 53.1886 62.79C53.2839 62.504 53.3316 62.1833 53.3316 61.828C53.3316 61.0913 53.1539 60.5193 52.7986 60.112C52.4432 59.696 51.9796 59.488 51.4076 59.488C51.1216 59.488 50.8572 59.5443 50.6146 59.657C50.3806 59.7697 50.1812 59.9257 50.0166 60.125C49.8432 60.333 49.7089 60.5843 49.6136 60.879C49.5269 61.165 49.4836 61.4813 49.4836 61.828ZM55.926 58.656H57.07V62.348C57.07 63.024 57.2 63.4963 57.46 63.765C57.7287 64.0337 58.084 64.168 58.526 64.168C59.02 64.168 59.4187 63.9643 59.722 63.557C60.034 63.1497 60.19 62.608 60.19 61.932V58.656H61.334V65H60.242V64.064H60.19C60.008 64.428 59.7567 64.701 59.436 64.883C59.1153 65.065 58.7253 65.156 58.266 65.156C57.954 65.156 57.655 65.1083 57.369 65.013C57.0917 64.9263 56.8447 64.779 56.628 64.571C56.4113 64.363 56.238 64.09 56.108 63.752C55.9867 63.414 55.926 62.998 55.926 62.504V58.656ZM63.3044 55.484H64.4484V65H63.3044V55.484ZM65.9595 61.88C65.9595 61.36 66.0331 60.892 66.1805 60.476C66.3365 60.06 66.5488 59.7047 66.8175 59.41C67.0775 59.1153 67.3808 58.89 67.7275 58.734C68.0828 58.578 68.4641 58.5 68.8715 58.5C69.3135 58.5 69.7078 58.5867 70.0545 58.76C70.4098 58.9333 70.6915 59.228 70.8995 59.644H70.9515C70.9255 59.228 70.9081 58.825 70.8995 58.435C70.8995 58.0363 70.8995 57.7287 70.8995 57.512V55.484H72.0435V65H70.9515V64.012H70.8995C70.6915 64.428 70.3925 64.7227 70.0025 64.896C69.6211 65.0693 69.2095 65.156 68.7675 65.156C68.3601 65.156 67.9831 65.0823 67.6365 64.935C67.2985 64.7877 67.0081 64.5753 66.7655 64.298C66.5141 64.0207 66.3148 63.6783 66.1675 63.271C66.0288 62.8637 65.9595 62.4 65.9595 61.88ZM67.1555 61.88C67.1555 62.2613 67.2031 62.595 67.2985 62.881C67.3938 63.1583 67.5281 63.3923 67.7015 63.583C67.8661 63.7823 68.0611 63.9297 68.2865 64.025C68.5205 64.1203 68.7675 64.168 69.0275 64.168C69.2875 64.168 69.5301 64.116 69.7555 64.012C69.9808 63.908 70.1801 63.7563 70.3535 63.557C70.5181 63.3663 70.6481 63.128 70.7435 62.842C70.8475 62.5473 70.8995 62.2093 70.8995 61.828C70.8995 61.4553 70.8475 61.1217 70.7435 60.827C70.6481 60.5323 70.5181 60.2853 70.3535 60.086C70.1801 59.8953 69.9808 59.748 69.7555 59.644C69.5301 59.54 69.2875 59.488 69.0275 59.488C68.7675 59.488 68.5205 59.5443 68.2865 59.657C68.0611 59.761 67.8661 59.9127 67.7015 60.112C67.5281 60.32 67.3938 60.5757 67.2985 60.879C67.2031 61.1737 67.1555 61.5073 67.1555 61.88ZM76.7327 66.976C77.0967 66.976 77.4087 66.8677 77.6687 66.651C77.9287 66.4343 78.1367 66.1093 78.2927 65.676L78.4357 65.273L75.9397 58.656H77.1877L78.9557 63.752H79.0077L80.7757 58.656H81.9197L79.2287 65.988C79.142 66.222 79.0337 66.456 78.9037 66.69C78.7824 66.924 78.6307 67.1363 78.4487 67.327C78.258 67.5177 78.037 67.6693 77.7857 67.782C77.543 67.9033 77.2614 67.964 76.9407 67.964H76.3167V66.976H76.7327ZM82.3872 61.828C82.3872 61.3253 82.4652 60.8703 82.6212 60.463C82.7772 60.047 82.9939 59.6917 83.2712 59.397C83.5399 59.111 83.8649 58.89 84.2462 58.734C84.6275 58.578 85.0479 58.5 85.5072 58.5C85.9839 58.5 86.4129 58.578 86.7942 58.734C87.1842 58.89 87.5179 59.111 87.7952 59.397C88.0639 59.6917 88.2675 60.047 88.4062 60.463C88.5535 60.8703 88.6272 61.3253 88.6272 61.828C88.6272 62.3393 88.5492 62.7987 88.3932 63.206C88.2372 63.6133 88.0249 63.96 87.7562 64.246C87.4789 64.5407 87.1452 64.766 86.7552 64.922C86.3739 65.078 85.9579 65.156 85.5072 65.156C85.0219 65.156 84.5885 65.078 84.2072 64.922C83.8259 64.766 83.5009 64.5407 83.2322 64.246C82.9549 63.96 82.7425 63.6133 82.5952 63.206C82.4565 62.7987 82.3872 62.3393 82.3872 61.828ZM83.5832 61.828C83.5832 62.1833 83.6265 62.504 83.7132 62.79C83.8085 63.076 83.9429 63.3187 84.1162 63.518C84.2809 63.726 84.4802 63.8863 84.7142 63.999C84.9569 64.1117 85.2212 64.168 85.5072 64.168C85.7932 64.168 86.0532 64.1117 86.2872 63.999C86.5212 63.8863 86.7249 63.726 86.8982 63.518C87.0629 63.3187 87.1929 63.076 87.2882 62.79C87.3835 62.504 87.4312 62.1833 87.4312 61.828C87.4312 61.0913 87.2535 60.5193 86.8982 60.112C86.5429 59.696 86.0792 59.488 85.5072 59.488C85.2212 59.488 84.9569 59.5443 84.7142 59.657C84.4802 59.7697 84.2809 59.9257 84.1162 60.125C83.9429 60.333 83.8085 60.5843 83.7132 60.879C83.6265 61.165 83.5832 61.4813 83.5832 61.828ZM90.0256 58.656H91.1696V62.348C91.1696 63.024 91.2996 63.4963 91.5596 63.765C91.8283 64.0337 92.1836 64.168 92.6256 64.168C93.1196 64.168 93.5183 63.9643 93.8216 63.557C94.1336 63.1497 94.2896 62.608 94.2896 61.932V58.656H95.4336V65H94.3416V64.064H94.2896C94.1076 64.428 93.8563 64.701 93.5356 64.883C93.2149 65.065 92.8249 65.156 92.3656 65.156C92.0536 65.156 91.7546 65.1083 91.4686 65.013C91.1913 64.9263 90.9443 64.779 90.7276 64.571C90.5109 64.363 90.3376 64.09 90.2076 63.752C90.0863 63.414 90.0256 62.998 90.0256 62.504V58.656ZM100.416 56.056H103.172C103.944 56.056 104.62 56.1687 105.2 56.394C105.79 56.6107 106.279 56.914 106.669 57.304C107.059 57.7027 107.354 58.1793 107.553 58.734C107.753 59.28 107.852 59.878 107.852 60.528C107.852 61.178 107.753 61.7803 107.553 62.335C107.354 62.881 107.059 63.349 106.669 63.739C106.279 64.1377 105.79 64.4497 105.2 64.675C104.62 64.8917 103.944 65 103.172 65H100.416V56.056ZM101.612 57.096V63.96H103.172C103.796 63.96 104.325 63.869 104.758 63.687C105.2 63.4963 105.56 63.2407 105.837 62.92C106.106 62.608 106.301 62.2483 106.422 61.841C106.544 61.425 106.604 60.9873 106.604 60.528C106.604 60.0773 106.544 59.644 106.422 59.228C106.301 58.812 106.106 58.4437 105.837 58.123C105.56 57.811 105.2 57.564 104.758 57.382C104.325 57.1913 103.796 57.096 103.172 57.096H101.612ZM109.57 56.056H110.766V65H109.57V56.056ZM115.232 61.49L112.06 56.056H113.412L115.83 60.268H115.882L118.404 56.056H119.652L116.428 61.399V65H115.232V61.49ZM123.19 61.828C123.19 61.3253 123.268 60.8703 123.424 60.463C123.58 60.047 123.797 59.6917 124.074 59.397C124.343 59.111 124.668 58.89 125.049 58.734C125.43 58.578 125.851 58.5 126.31 58.5C126.787 58.5 127.216 58.578 127.597 58.734C127.987 58.89 128.321 59.111 128.598 59.397C128.867 59.6917 129.07 60.047 129.209 60.463C129.356 60.8703 129.43 61.3253 129.43 61.828C129.43 62.3393 129.352 62.7987 129.196 63.206C129.04 63.6133 128.828 63.96 128.559 64.246C128.282 64.5407 127.948 64.766 127.558 64.922C127.177 65.078 126.761 65.156 126.31 65.156C125.825 65.156 125.391 65.078 125.01 64.922C124.629 64.766 124.304 64.5407 124.035 64.246C123.758 63.96 123.545 63.6133 123.398 63.206C123.259 62.7987 123.19 62.3393 123.19 61.828ZM124.386 61.828C124.386 62.1833 124.429 62.504 124.516 62.79C124.611 63.076 124.746 63.3187 124.919 63.518C125.084 63.726 125.283 63.8863 125.517 63.999C125.76 64.1117 126.024 64.168 126.31 64.168C126.596 64.168 126.856 64.1117 127.09 63.999C127.324 63.8863 127.528 63.726 127.701 63.518C127.866 63.3187 127.996 63.076 128.091 62.79C128.186 62.504 128.234 62.1833 128.234 61.828C128.234 61.0913 128.056 60.5193 127.701 60.112C127.346 59.696 126.882 59.488 126.31 59.488C126.024 59.488 125.76 59.5443 125.517 59.657C125.283 59.7697 125.084 59.9257 124.919 60.125C124.746 60.333 124.611 60.5843 124.516 60.879C124.429 61.165 124.386 61.4813 124.386 61.828ZM130.932 58.656H132.024V59.579H132.063C132.219 59.241 132.436 58.9767 132.713 58.786C132.991 58.5953 133.333 58.5 133.74 58.5C133.87 58.5 134.009 58.5173 134.156 58.552C134.304 58.578 134.46 58.6473 134.624 58.76L134.26 59.8C134.122 59.7307 133.987 59.6787 133.857 59.644C133.727 59.6093 133.602 59.592 133.48 59.592C133.246 59.592 133.038 59.6483 132.856 59.761C132.683 59.8737 132.54 60.0253 132.427 60.216C132.306 60.4153 132.215 60.6407 132.154 60.892C132.102 61.1433 132.076 61.4077 132.076 61.685V65H130.932V58.656ZM138.473 55.484H139.617V57.512C139.617 57.7287 139.613 58.0363 139.604 58.435C139.604 58.825 139.591 59.228 139.565 59.644H139.617C139.825 59.228 140.12 58.9333 140.501 58.76C140.891 58.5867 141.307 58.5 141.749 58.5C142.148 58.5 142.521 58.5737 142.867 58.721C143.214 58.8683 143.513 59.0807 143.764 59.358C144.007 59.6353 144.198 59.9777 144.336 60.385C144.484 60.7923 144.557 61.256 144.557 61.776C144.557 62.296 144.479 62.764 144.323 63.18C144.176 63.596 143.972 63.9513 143.712 64.246C143.444 64.5407 143.132 64.766 142.776 64.922C142.421 65.078 142.044 65.156 141.645 65.156C141.203 65.156 140.805 65.0693 140.449 64.896C140.103 64.7227 139.825 64.428 139.617 64.012H139.565V65H138.473V55.484ZM139.617 61.828C139.617 62.2093 139.665 62.5473 139.76 62.842C139.856 63.128 139.99 63.3663 140.163 63.557C140.328 63.7563 140.523 63.908 140.748 64.012C140.982 64.116 141.229 64.168 141.489 64.168C141.749 64.168 141.992 64.116 142.217 64.012C142.443 63.8993 142.642 63.739 142.815 63.531C142.98 63.3317 143.11 63.0847 143.205 62.79C143.309 62.4953 143.361 62.1573 143.361 61.776C143.361 61.4033 143.309 61.074 143.205 60.788C143.11 60.502 142.98 60.2593 142.815 60.06C142.642 59.8693 142.443 59.7263 142.217 59.631C141.992 59.5357 141.749 59.488 141.489 59.488C141.238 59.488 141 59.54 140.774 59.644C140.549 59.7393 140.354 59.878 140.189 60.06C140.016 60.2507 139.877 60.4847 139.773 60.762C139.678 61.0393 139.626 61.36 139.617 61.724V61.828ZM145.961 58.656H147.105V62.348C147.105 63.024 147.235 63.4963 147.495 63.765C147.764 64.0337 148.119 64.168 148.561 64.168C149.055 64.168 149.454 63.9643 149.757 63.557C150.069 63.1497 150.225 62.608 150.225 61.932V58.656H151.369V65H150.277V64.064H150.225C150.043 64.428 149.792 64.701 149.471 64.883C149.15 65.065 148.76 65.156 148.301 65.156C147.989 65.156 147.69 65.1083 147.404 65.013C147.127 64.9263 146.88 64.779 146.663 64.571C146.446 64.363 146.273 64.09 146.143 63.752C146.022 63.414 145.961 62.998 145.961 62.504V58.656ZM153.197 66.976C153.561 66.976 153.873 66.8677 154.133 66.651C154.393 66.4343 154.601 66.1093 154.757 65.676L154.9 65.273L152.404 58.656H153.652L155.42 63.752H155.472L157.24 58.656H158.384L155.693 65.988C155.606 66.222 155.498 66.456 155.368 66.69C155.246 66.924 155.095 67.1363 154.913 67.327C154.722 67.5177 154.501 67.6693 154.25 67.782C154.007 67.9033 153.725 67.964 153.405 67.964H152.781V66.976H153.197ZM162.134 66.976C162.498 66.976 162.81 66.8677 163.07 66.651C163.33 66.4343 163.538 66.1093 163.694 65.676L163.837 65.273L161.341 58.656H162.589L164.357 63.752H164.409L166.177 58.656H167.321L164.63 65.988C164.543 66.222 164.435 66.456 164.305 66.69C164.184 66.924 164.032 67.1363 163.85 67.327C163.659 67.5177 163.438 67.6693 163.187 67.782C162.944 67.9033 162.663 67.964 162.342 67.964H161.718V66.976H162.134ZM167.789 61.828C167.789 61.3253 167.867 60.8703 168.023 60.463C168.179 60.047 168.395 59.6917 168.673 59.397C168.941 59.111 169.266 58.89 169.648 58.734C170.029 58.578 170.449 58.5 170.909 58.5C171.385 58.5 171.814 58.578 172.196 58.734C172.586 58.89 172.919 59.111 173.197 59.397C173.465 59.6917 173.669 60.047 173.808 60.463C173.955 60.8703 174.029 61.3253 174.029 61.828C174.029 62.3393 173.951 62.7987 173.795 63.206C173.639 63.6133 173.426 63.96 173.158 64.246C172.88 64.5407 172.547 64.766 172.157 64.922C171.775 65.078 171.359 65.156 170.909 65.156C170.423 65.156 169.99 65.078 169.609 64.922C169.227 64.766 168.902 64.5407 168.634 64.246C168.356 63.96 168.144 63.6133 167.997 63.206C167.858 62.7987 167.789 62.3393 167.789 61.828ZM168.985 61.828C168.985 62.1833 169.028 62.504 169.115 62.79C169.21 63.076 169.344 63.3187 169.518 63.518C169.682 63.726 169.882 63.8863 170.116 63.999C170.358 64.1117 170.623 64.168 170.909 64.168C171.195 64.168 171.455 64.1117 171.689 63.999C171.923 63.8863 172.126 63.726 172.3 63.518C172.464 63.3187 172.594 63.076 172.69 62.79C172.785 62.504 172.833 62.1833 172.833 61.828C172.833 61.0913 172.655 60.5193 172.3 60.112C171.944 59.696 171.481 59.488 170.909 59.488C170.623 59.488 170.358 59.5443 170.116 59.657C169.882 59.7697 169.682 59.9257 169.518 60.125C169.344 60.333 169.21 60.5843 169.115 60.879C169.028 61.165 168.985 61.4813 168.985 61.828ZM175.427 58.656H176.571V62.348C176.571 63.024 176.701 63.4963 176.961 63.765C177.23 64.0337 177.585 64.168 178.027 64.168C178.521 64.168 178.92 63.9643 179.223 63.557C179.535 63.1497 179.691 62.608 179.691 61.932V58.656H180.835V65H179.743V64.064H179.691C179.509 64.428 179.258 64.701 178.937 64.883C178.616 65.065 178.226 65.156 177.767 65.156C177.455 65.156 177.156 65.1083 176.87 65.013C176.593 64.9263 176.346 64.779 176.129 64.571C175.912 64.363 175.739 64.09 175.609 63.752C175.488 63.414 175.427 62.998 175.427 62.504V58.656ZM182.805 58.656H183.897V59.579H183.936C184.092 59.241 184.309 58.9767 184.586 58.786C184.864 58.5953 185.206 58.5 185.613 58.5C185.743 58.5 185.882 58.5173 186.029 58.552C186.177 58.578 186.333 58.6473 186.497 58.76L186.133 59.8C185.995 59.7307 185.86 59.6787 185.73 59.644C185.6 59.6093 185.475 59.592 185.353 59.592C185.119 59.592 184.911 59.6483 184.729 59.761C184.556 59.8737 184.413 60.0253 184.3 60.216C184.179 60.4153 184.088 60.6407 184.027 60.892C183.975 61.1433 183.949 61.4077 183.949 61.685V65H182.805V58.656ZM32.936 79.484H34.184V80.784H32.936V79.484ZM32.988 82.656H34.132V89H32.988V82.656ZM35.643 85.88C35.643 85.36 35.7167 84.892 35.864 84.476C36.02 84.06 36.2324 83.7047 36.501 83.41C36.761 83.1153 37.0644 82.89 37.411 82.734C37.7664 82.578 38.1477 82.5 38.555 82.5C38.997 82.5 39.3914 82.5867 39.738 82.76C40.0934 82.9333 40.375 83.228 40.583 83.644H40.635C40.609 83.228 40.5917 82.825 40.583 82.435C40.583 82.0363 40.583 81.7287 40.583 81.512V79.484H41.727V89H40.635V88.012H40.583C40.375 88.428 40.076 88.7227 39.686 88.896C39.3047 89.0693 38.893 89.156 38.451 89.156C38.0437 89.156 37.6667 89.0823 37.32 88.935C36.982 88.7877 36.6917 88.5753 36.449 88.298C36.1977 88.0207 35.9984 87.6783 35.851 87.271C35.7124 86.8637 35.643 86.4 35.643 85.88ZM36.839 85.88C36.839 86.2613 36.8867 86.595 36.982 86.881C37.0774 87.1583 37.2117 87.3923 37.385 87.583C37.5497 87.7823 37.7447 87.9297 37.97 88.025C38.204 88.1203 38.451 88.168 38.711 88.168C38.971 88.168 39.2137 88.116 39.439 88.012C39.6644 87.908 39.8637 87.7563 40.037 87.557C40.2017 87.3663 40.3317 87.128 40.427 86.842C40.531 86.5473 40.583 86.2093 40.583 85.828C40.583 85.4553 40.531 85.1217 40.427 84.827C40.3317 84.5323 40.2017 84.2853 40.037 84.086C39.8637 83.8953 39.6644 83.748 39.439 83.644C39.2137 83.54 38.971 83.488 38.711 83.488C38.451 83.488 38.204 83.5443 37.97 83.657C37.7447 83.761 37.5497 83.9127 37.385 84.112C37.2117 84.32 37.0774 84.5757 36.982 84.879C36.8867 85.1737 36.839 85.5073 36.839 85.88ZM43.2348 85.828C43.2348 85.334 43.3085 84.8833 43.4558 84.476C43.6118 84.0687 43.8285 83.7177 44.1058 83.423C44.3745 83.1283 44.6908 82.903 45.0548 82.747C45.4188 82.5823 45.8175 82.5 46.2508 82.5C46.6668 82.5 47.0438 82.5693 47.3818 82.708C47.7285 82.838 48.0275 83.033 48.2788 83.293C48.5215 83.553 48.7122 83.8693 48.8508 84.242C48.9895 84.6147 49.0588 85.0393 49.0588 85.516V85.984H44.4308C44.4568 86.6513 44.6345 87.1843 44.9638 87.583C45.3018 87.973 45.7482 88.168 46.3028 88.168C46.7708 88.168 47.1305 88.0597 47.3818 87.843C47.6332 87.6177 47.7935 87.362 47.8628 87.076H49.0068C48.9635 87.362 48.8682 87.6307 48.7208 87.882C48.5735 88.1333 48.3828 88.35 48.1488 88.532C47.9148 88.7227 47.6418 88.8743 47.3298 88.987C47.0178 89.0997 46.6755 89.156 46.3028 89.156C45.8088 89.156 45.3712 89.078 44.9898 88.922C44.6085 88.766 44.2878 88.5407 44.0278 88.246C43.7678 87.96 43.5685 87.6133 43.4298 87.206C43.2998 86.7987 43.2348 86.3393 43.2348 85.828ZM46.2508 83.488C45.8175 83.488 45.4405 83.631 45.1198 83.917C44.8078 84.203 44.5998 84.606 44.4958 85.126H47.8888C47.8368 84.554 47.6678 84.138 47.3818 83.878C47.1045 83.618 46.7275 83.488 46.2508 83.488ZM50.5202 82.656H51.6122V83.592H51.6642C51.8462 83.228 52.1019 82.955 52.4312 82.773C52.7606 82.591 53.1636 82.5 53.6402 82.5C53.9522 82.5 54.2469 82.5477 54.5242 82.643C54.8102 82.7297 55.0616 82.877 55.2782 83.085C55.4949 83.293 55.6639 83.566 55.7852 83.904C55.9152 84.242 55.9802 84.658 55.9802 85.152V89H54.8362V85.308C54.8362 84.632 54.7019 84.1597 54.4332 83.891C54.1732 83.6223 53.8222 83.488 53.3802 83.488C53.1376 83.488 52.9122 83.54 52.7042 83.644C52.4962 83.748 52.3142 83.8953 52.1582 84.086C52.0022 84.2767 51.8809 84.5107 51.7942 84.788C51.7076 85.0567 51.6642 85.3643 51.6642 85.711V89H50.5202V82.656ZM57.9126 83.592H56.7166V82.656H57.9126V80.732H59.0566V82.656H60.7206V83.592H59.0566V87.076C59.0566 87.414 59.1259 87.6567 59.2646 87.804C59.4032 87.9427 59.6286 88.012 59.9406 88.012H60.7206V89H59.7846C59.1606 89 58.6926 88.8527 58.3806 88.558C58.0686 88.2633 57.9126 87.804 57.9126 87.18V83.592ZM61.9702 79.484H63.2182V80.784H61.9702V79.484ZM62.0222 82.656H63.1662V89H62.0222V82.656ZM65.3012 83.592H64.1052V82.656H65.3012V80.732H66.4452V82.656H68.1092V83.592H66.4452V87.076C66.4452 87.414 66.5146 87.6567 66.6532 87.804C66.7919 87.9427 67.0172 88.012 67.3292 88.012H68.1092V89H67.1732C66.5492 89 66.0812 88.8527 65.7692 88.558C65.4572 88.2633 65.3012 87.804 65.3012 87.18V83.592ZM69.5218 90.976C69.8858 90.976 70.1978 90.8677 70.4578 90.651C70.7178 90.4343 70.9258 90.1093 71.0818 89.676L71.2248 89.273L68.7288 82.656H69.9768L71.7448 87.752H71.7968L73.5648 82.656H74.7088L72.0178 89.988C71.9311 90.222 71.8228 90.456 71.6928 90.69C71.5714 90.924 71.4198 91.1363 71.2378 91.327C71.0471 91.5177 70.8261 91.6693 70.5748 91.782C70.3321 91.9033 70.0504 91.964 69.7298 91.964H69.1058V90.976H69.5218ZM78.6023 82.656H79.6943V83.592H79.7463C79.9283 83.228 80.1839 82.955 80.5133 82.773C80.8426 82.591 81.2283 82.5 81.6703 82.5C82.1036 82.5 82.4979 82.5997 82.8533 82.799C83.2086 82.9983 83.4729 83.3277 83.6463 83.787C83.8629 83.3363 84.1446 83.0113 84.4913 82.812C84.8379 82.604 85.2669 82.5 85.7783 82.5C86.0729 82.5 86.3546 82.5477 86.6233 82.643C86.8919 82.7297 87.1259 82.8727 87.3253 83.072C87.5159 83.2713 87.6676 83.5357 87.7803 83.865C87.9016 84.1857 87.9623 84.58 87.9623 85.048V89H86.8183V85.204C86.8183 84.58 86.7099 84.138 86.4933 83.878C86.2853 83.618 85.9603 83.488 85.5183 83.488C85.2929 83.488 85.0763 83.54 84.8683 83.644C84.6689 83.748 84.4956 83.8953 84.3483 84.086C84.1923 84.2767 84.0709 84.5107 83.9843 84.788C83.8976 85.0567 83.8543 85.36 83.8543 85.698V89H82.7103V85.204C82.7103 84.58 82.5976 84.138 82.3723 83.878C82.1469 83.618 81.8263 83.488 81.4103 83.488C81.1849 83.488 80.9683 83.54 80.7603 83.644C80.5609 83.748 80.3876 83.8953 80.2403 84.086C80.0843 84.2767 79.9629 84.5107 79.8763 84.788C79.7896 85.0567 79.7463 85.3643 79.7463 85.711V89H78.6023V82.656ZM89.4736 87.31C89.4736 86.7553 89.6296 86.3263 89.9416 86.023C90.2623 85.7197 90.7823 85.5073 91.5016 85.386L92.8016 85.178C92.9663 85.152 93.1006 85.126 93.2046 85.1C93.3173 85.074 93.4083 85.0437 93.4776 85.009C93.5383 84.9743 93.5773 84.931 93.5946 84.879C93.6206 84.8183 93.6336 84.736 93.6336 84.632C93.6336 84.3027 93.5209 84.021 93.2956 83.787C93.0703 83.553 92.7323 83.436 92.2816 83.436C91.8136 83.436 91.4583 83.5487 91.2156 83.774C90.9816 83.9907 90.8516 84.2767 90.8256 84.632H89.7336C89.7423 84.3373 89.8073 84.06 89.9286 83.8C90.0499 83.54 90.2189 83.3103 90.4356 83.111C90.6436 82.9203 90.9036 82.773 91.2156 82.669C91.5276 82.5563 91.8829 82.5 92.2816 82.5C93.1223 82.5 93.7463 82.708 94.1536 83.124C94.5696 83.5313 94.7776 84.1033 94.7776 84.84V89H93.6856V87.986H93.6336C93.4776 88.3153 93.2219 88.584 92.8666 88.792C92.5113 89 92.0736 89.104 91.5536 89.104C90.9296 89.104 90.4269 88.948 90.0456 88.636C89.6643 88.3153 89.4736 87.8733 89.4736 87.31ZM93.6336 85.685C93.5729 85.7543 93.4863 85.815 93.3736 85.867C93.2609 85.919 93.1223 85.958 92.9576 85.984L91.7616 86.192C91.3716 86.2613 91.0813 86.374 90.8906 86.53C90.7086 86.6773 90.6176 86.9027 90.6176 87.206C90.6176 87.4833 90.7086 87.713 90.8906 87.895C91.0813 88.077 91.3543 88.168 91.7096 88.168C91.9523 88.168 92.1906 88.129 92.4246 88.051C92.6586 87.973 92.8666 87.856 93.0486 87.7C93.2219 87.544 93.3606 87.349 93.4646 87.115C93.5773 86.881 93.6336 86.608 93.6336 86.296V85.685ZM96.655 82.656H97.747V83.592H97.799C97.981 83.228 98.2367 82.955 98.566 82.773C98.8953 82.591 99.2983 82.5 99.775 82.5C100.087 82.5 100.382 82.5477 100.659 82.643C100.945 82.7297 101.196 82.877 101.413 83.085C101.63 83.293 101.799 83.566 101.92 83.904C102.05 84.242 102.115 84.658 102.115 85.152V89H100.971V85.308C100.971 84.632 100.837 84.1597 100.568 83.891C100.308 83.6223 99.957 83.488 99.515 83.488C99.2723 83.488 99.047 83.54 98.839 83.644C98.631 83.748 98.449 83.8953 98.293 84.086C98.137 84.2767 98.0157 84.5107 97.929 84.788C97.8423 85.0567 97.799 85.3643 97.799 85.711V89H96.655V82.656ZM103.629 87.31C103.629 86.7553 103.785 86.3263 104.097 86.023C104.418 85.7197 104.938 85.5073 105.657 85.386L106.957 85.178C107.122 85.152 107.256 85.126 107.36 85.1C107.473 85.074 107.564 85.0437 107.633 85.009C107.694 84.9743 107.733 84.931 107.75 84.879C107.776 84.8183 107.789 84.736 107.789 84.632C107.789 84.3027 107.676 84.021 107.451 83.787C107.226 83.553 106.888 83.436 106.437 83.436C105.969 83.436 105.614 83.5487 105.371 83.774C105.137 83.9907 105.007 84.2767 104.981 84.632H103.889C103.898 84.3373 103.963 84.06 104.084 83.8C104.205 83.54 104.374 83.3103 104.591 83.111C104.799 82.9203 105.059 82.773 105.371 82.669C105.683 82.5563 106.038 82.5 106.437 82.5C107.278 82.5 107.902 82.708 108.309 83.124C108.725 83.5313 108.933 84.1033 108.933 84.84V89H107.841V87.986H107.789C107.633 88.3153 107.377 88.584 107.022 88.792C106.667 89 106.229 89.104 105.709 89.104C105.085 89.104 104.582 88.948 104.201 88.636C103.82 88.3153 103.629 87.8733 103.629 87.31ZM107.789 85.685C107.728 85.7543 107.642 85.815 107.529 85.867C107.416 85.919 107.278 85.958 107.113 85.984L105.917 86.192C105.527 86.2613 105.237 86.374 105.046 86.53C104.864 86.6773 104.773 86.9027 104.773 87.206C104.773 87.4833 104.864 87.713 105.046 87.895C105.237 88.077 105.51 88.168 105.865 88.168C106.108 88.168 106.346 88.129 106.58 88.051C106.814 87.973 107.022 87.856 107.204 87.7C107.377 87.544 107.516 87.349 107.62 87.115C107.733 86.881 107.789 86.608 107.789 86.296V85.685ZM111.59 89.78C111.59 90.17 111.751 90.4733 112.071 90.69C112.401 90.9153 112.812 91.028 113.306 91.028C113.584 91.028 113.844 90.989 114.086 90.911C114.338 90.833 114.554 90.703 114.736 90.521C114.918 90.339 115.061 90.0963 115.165 89.793C115.278 89.4983 115.334 89.13 115.334 88.688V88.012H115.282C115.074 88.428 114.775 88.7227 114.385 88.896C114.004 89.0693 113.592 89.156 113.15 89.156C112.743 89.156 112.366 89.0823 112.019 88.935C111.681 88.7877 111.391 88.5753 111.148 88.298C110.897 88.0207 110.698 87.6783 110.55 87.271C110.412 86.8637 110.342 86.4 110.342 85.88C110.342 85.36 110.416 84.892 110.563 84.476C110.719 84.06 110.932 83.7047 111.2 83.41C111.46 83.1153 111.764 82.89 112.11 82.734C112.466 82.578 112.847 82.5 113.254 82.5C113.696 82.5 114.091 82.5867 114.437 82.76C114.793 82.9333 115.074 83.228 115.282 83.644H115.334V82.656H116.426V88.688C116.426 89.286 116.344 89.793 116.179 90.209C116.015 90.625 115.789 90.963 115.503 91.223C115.217 91.483 114.884 91.6693 114.502 91.782C114.13 91.9033 113.731 91.964 113.306 91.964C112.908 91.964 112.535 91.9163 112.188 91.821C111.85 91.7257 111.556 91.587 111.304 91.405C111.053 91.223 110.854 90.9933 110.706 90.716C110.568 90.4473 110.498 90.1353 110.498 89.78H111.59ZM111.538 85.88C111.538 86.2613 111.586 86.595 111.681 86.881C111.777 87.1583 111.911 87.3923 112.084 87.583C112.249 87.7823 112.444 87.9297 112.669 88.025C112.903 88.1203 113.15 88.168 113.41 88.168C113.67 88.168 113.913 88.116 114.138 88.012C114.364 87.908 114.563 87.7563 114.736 87.557C114.901 87.3663 115.031 87.128 115.126 86.842C115.23 86.5473 115.282 86.2093 115.282 85.828C115.282 85.4553 115.23 85.1217 115.126 84.827C115.031 84.5323 114.901 84.2853 114.736 84.086C114.563 83.8953 114.364 83.748 114.138 83.644C113.913 83.54 113.67 83.488 113.41 83.488C113.15 83.488 112.903 83.5443 112.669 83.657C112.444 83.761 112.249 83.9127 112.084 84.112C111.911 84.32 111.777 84.5757 111.681 84.879C111.586 85.1737 111.538 85.5073 111.538 85.88ZM117.934 85.828C117.934 85.334 118.008 84.8833 118.155 84.476C118.311 84.0687 118.528 83.7177 118.805 83.423C119.074 83.1283 119.39 82.903 119.754 82.747C120.118 82.5823 120.517 82.5 120.95 82.5C121.366 82.5 121.743 82.5693 122.081 82.708C122.428 82.838 122.727 83.033 122.978 83.293C123.221 83.553 123.411 83.8693 123.55 84.242C123.689 84.6147 123.758 85.0393 123.758 85.516V85.984H119.13C119.156 86.6513 119.334 87.1843 119.663 87.583C120.001 87.973 120.447 88.168 121.002 88.168C121.47 88.168 121.83 88.0597 122.081 87.843C122.332 87.6177 122.493 87.362 122.562 87.076H123.706C123.663 87.362 123.567 87.6307 123.42 87.882C123.273 88.1333 123.082 88.35 122.848 88.532C122.614 88.7227 122.341 88.8743 122.029 88.987C121.717 89.0997 121.375 89.156 121.002 89.156C120.508 89.156 120.07 89.078 119.689 88.922C119.308 88.766 118.987 88.5407 118.727 88.246C118.467 87.96 118.268 87.6133 118.129 87.206C117.999 86.7987 117.934 86.3393 117.934 85.828ZM120.95 83.488C120.517 83.488 120.14 83.631 119.819 83.917C119.507 84.203 119.299 84.606 119.195 85.126H122.588C122.536 84.554 122.367 84.138 122.081 83.878C121.804 83.618 121.427 83.488 120.95 83.488ZM125.219 82.656H126.311V83.592H126.363C126.545 83.228 126.801 82.955 127.13 82.773C127.46 82.591 127.845 82.5 128.287 82.5C128.721 82.5 129.115 82.5997 129.47 82.799C129.826 82.9983 130.09 83.3277 130.263 83.787C130.48 83.3363 130.762 83.0113 131.108 82.812C131.455 82.604 131.884 82.5 132.395 82.5C132.69 82.5 132.972 82.5477 133.24 82.643C133.509 82.7297 133.743 82.8727 133.942 83.072C134.133 83.2713 134.285 83.5357 134.397 83.865C134.519 84.1857 134.579 84.58 134.579 85.048V89H133.435V85.204C133.435 84.58 133.327 84.138 133.11 83.878C132.902 83.618 132.577 83.488 132.135 83.488C131.91 83.488 131.693 83.54 131.485 83.644C131.286 83.748 131.113 83.8953 130.965 84.086C130.809 84.2767 130.688 84.5107 130.601 84.788C130.515 85.0567 130.471 85.36 130.471 85.698V89H129.327V85.204C129.327 84.58 129.215 84.138 128.989 83.878C128.764 83.618 128.443 83.488 128.027 83.488C127.802 83.488 127.585 83.54 127.377 83.644C127.178 83.748 127.005 83.8953 126.857 84.086C126.701 84.2767 126.58 84.5107 126.493 84.788C126.407 85.0567 126.363 85.3643 126.363 85.711V89H125.219V82.656ZM135.987 85.828C135.987 85.334 136.06 84.8833 136.208 84.476C136.364 84.0687 136.58 83.7177 136.858 83.423C137.126 83.1283 137.443 82.903 137.807 82.747C138.171 82.5823 138.569 82.5 139.003 82.5C139.419 82.5 139.796 82.5693 140.134 82.708C140.48 82.838 140.779 83.033 141.031 83.293C141.273 83.553 141.464 83.8693 141.603 84.242C141.741 84.6147 141.811 85.0393 141.811 85.516V85.984H137.183C137.209 86.6513 137.386 87.1843 137.716 87.583C138.054 87.973 138.5 88.168 139.055 88.168C139.523 88.168 139.882 88.0597 140.134 87.843C140.385 87.6177 140.545 87.362 140.615 87.076H141.759C141.715 87.362 141.62 87.6307 141.473 87.882C141.325 88.1333 141.135 88.35 140.901 88.532C140.667 88.7227 140.394 88.8743 140.082 88.987C139.77 89.0997 139.427 89.156 139.055 89.156C138.561 89.156 138.123 89.078 137.742 88.922C137.36 88.766 137.04 88.5407 136.78 88.246C136.52 87.96 136.32 87.6133 136.182 87.206C136.052 86.7987 135.987 86.3393 135.987 85.828ZM139.003 83.488C138.569 83.488 138.192 83.631 137.872 83.917C137.56 84.203 137.352 84.606 137.248 85.126H140.641C140.589 84.554 140.42 84.138 140.134 83.878C139.856 83.618 139.479 83.488 139.003 83.488ZM143.272 82.656H144.364V83.592H144.416C144.598 83.228 144.854 82.955 145.183 82.773C145.513 82.591 145.916 82.5 146.392 82.5C146.704 82.5 146.999 82.5477 147.276 82.643C147.562 82.7297 147.814 82.877 148.03 83.085C148.247 83.293 148.416 83.566 148.537 83.904C148.667 84.242 148.732 84.658 148.732 85.152V89H147.588V85.308C147.588 84.632 147.454 84.1597 147.185 83.891C146.925 83.6223 146.574 83.488 146.132 83.488C145.89 83.488 145.664 83.54 145.456 83.644C145.248 83.748 145.066 83.8953 144.91 84.086C144.754 84.2767 144.633 84.5107 144.546 84.788C144.46 85.0567 144.416 85.3643 144.416 85.711V89H143.272V82.656ZM150.665 83.592H149.469V82.656H150.665V80.732H151.809V82.656H153.473V83.592H151.809V87.076C151.809 87.414 151.878 87.6567 152.017 87.804C152.155 87.9427 152.381 88.012 152.693 88.012H153.473V89H152.537C151.913 89 151.445 88.8527 151.133 88.558C150.821 88.2633 150.665 87.804 150.665 87.18V83.592ZM158.255 87.128C158.255 87.3273 158.294 87.5007 158.372 87.648C158.458 87.7953 158.571 87.9123 158.71 87.999C158.848 88.0943 159.004 88.1637 159.178 88.207C159.36 88.2503 159.546 88.272 159.737 88.272C160.257 88.272 160.634 88.1897 160.868 88.025C161.102 87.8517 161.219 87.5873 161.219 87.232C161.219 86.9807 161.145 86.7943 160.998 86.673C160.85 86.543 160.612 86.4477 160.283 86.387L159.087 86.179C158.887 86.1443 158.679 86.0923 158.463 86.023C158.255 85.9537 158.064 85.854 157.891 85.724C157.717 85.6027 157.574 85.4423 157.462 85.243C157.349 85.035 157.293 84.7793 157.293 84.476C157.293 84.164 157.353 83.8867 157.475 83.644C157.605 83.4013 157.782 83.1933 158.008 83.02C158.224 82.8553 158.48 82.7297 158.775 82.643C159.078 82.5477 159.407 82.5 159.763 82.5C160.101 82.5 160.417 82.539 160.712 82.617C161.006 82.695 161.266 82.8163 161.492 82.981C161.708 83.1457 161.882 83.3537 162.012 83.605C162.142 83.8477 162.207 84.138 162.207 84.476H161.115C161.115 84.138 160.993 83.8737 160.751 83.683C160.508 83.4837 160.179 83.384 159.763 83.384C159.373 83.384 159.048 83.4663 158.788 83.631C158.536 83.7957 158.411 84.0427 158.411 84.372C158.411 84.606 158.489 84.788 158.645 84.918C158.801 85.048 159.069 85.1477 159.451 85.217L160.647 85.425C160.872 85.4683 161.089 85.529 161.297 85.607C161.505 85.6763 161.687 85.776 161.843 85.906C161.999 86.0447 162.124 86.218 162.22 86.426C162.315 86.634 162.363 86.8853 162.363 87.18C162.363 87.8473 162.124 88.3457 161.648 88.675C161.171 88.9957 160.543 89.156 159.763 89.156C158.948 89.156 158.311 88.9827 157.852 88.636C157.392 88.2807 157.163 87.778 157.163 87.128H158.255ZM163.459 85.828C163.459 85.3253 163.537 84.8703 163.693 84.463C163.849 84.047 164.066 83.6917 164.343 83.397C164.612 83.111 164.937 82.89 165.318 82.734C165.7 82.578 166.12 82.5 166.579 82.5C167.056 82.5 167.485 82.578 167.866 82.734C168.256 82.89 168.59 83.111 168.867 83.397C169.136 83.6917 169.34 84.047 169.478 84.463C169.626 84.8703 169.699 85.3253 169.699 85.828C169.699 86.3393 169.621 86.7987 169.465 87.206C169.309 87.6133 169.097 87.96 168.828 88.246C168.551 88.5407 168.217 88.766 167.827 88.922C167.446 89.078 167.03 89.156 166.579 89.156C166.094 89.156 165.661 89.078 165.279 88.922C164.898 88.766 164.573 88.5407 164.304 88.246C164.027 87.96 163.815 87.6133 163.667 87.206C163.529 86.7987 163.459 86.3393 163.459 85.828ZM164.655 85.828C164.655 86.1833 164.699 86.504 164.785 86.79C164.881 87.076 165.015 87.3187 165.188 87.518C165.353 87.726 165.552 87.8863 165.786 87.999C166.029 88.1117 166.293 88.168 166.579 88.168C166.865 88.168 167.125 88.1117 167.359 87.999C167.593 87.8863 167.797 87.726 167.97 87.518C168.135 87.3187 168.265 87.076 168.36 86.79C168.456 86.504 168.503 86.1833 168.503 85.828C168.503 85.0913 168.326 84.5193 167.97 84.112C167.615 83.696 167.151 83.488 166.579 83.488C166.293 83.488 166.029 83.5443 165.786 83.657C165.552 83.7697 165.353 83.9257 165.188 84.125C165.015 84.333 164.881 84.5843 164.785 84.879C164.699 85.165 164.655 85.4813 164.655 85.828ZM171.202 79.484H172.346V89H171.202V79.484ZM174.221 82.656H175.365V86.348C175.365 87.024 175.495 87.4963 175.755 87.765C176.024 88.0337 176.379 88.168 176.821 88.168C177.315 88.168 177.714 87.9643 178.017 87.557C178.329 87.1497 178.485 86.608 178.485 85.932V82.656H179.629V89H178.537V88.064H178.485C178.303 88.428 178.052 88.701 177.731 88.883C177.41 89.065 177.02 89.156 176.561 89.156C176.249 89.156 175.95 89.1083 175.664 89.013C175.387 88.9263 175.14 88.779 174.923 88.571C174.706 88.363 174.533 88.09 174.403 87.752C174.282 87.414 174.221 86.998 174.221 86.504V82.656ZM181.755 83.592H180.559V82.656H181.755V80.732H182.899V82.656H184.563V83.592H182.899V87.076C182.899 87.414 182.969 87.6567 183.107 87.804C183.246 87.9427 183.471 88.012 183.783 88.012H184.563V89H183.627C183.003 89 182.535 88.8527 182.223 88.558C181.911 88.2633 181.755 87.804 181.755 87.18V83.592ZM185.813 79.484H187.061V80.784H185.813V79.484ZM185.865 82.656H187.009V89H185.865V82.656ZM188.52 85.828C188.52 85.3253 188.598 84.8703 188.754 84.463C188.91 84.047 189.127 83.6917 189.404 83.397C189.673 83.111 189.998 82.89 190.379 82.734C190.76 82.578 191.181 82.5 191.64 82.5C192.117 82.5 192.546 82.578 192.927 82.734C193.317 82.89 193.651 83.111 193.928 83.397C194.197 83.6917 194.4 84.047 194.539 84.463C194.686 84.8703 194.76 85.3253 194.76 85.828C194.76 86.3393 194.682 86.7987 194.526 87.206C194.37 87.6133 194.158 87.96 193.889 88.246C193.612 88.5407 193.278 88.766 192.888 88.922C192.507 89.078 192.091 89.156 191.64 89.156C191.155 89.156 190.721 89.078 190.34 88.922C189.959 88.766 189.634 88.5407 189.365 88.246C189.088 87.96 188.875 87.6133 188.728 87.206C188.589 86.7987 188.52 86.3393 188.52 85.828ZM189.716 85.828C189.716 86.1833 189.759 86.504 189.846 86.79C189.941 87.076 190.076 87.3187 190.249 87.518C190.414 87.726 190.613 87.8863 190.847 87.999C191.09 88.1117 191.354 88.168 191.64 88.168C191.926 88.168 192.186 88.1117 192.42 87.999C192.654 87.8863 192.858 87.726 193.031 87.518C193.196 87.3187 193.326 87.076 193.421 86.79C193.516 86.504 193.564 86.1833 193.564 85.828C193.564 85.0913 193.386 84.5193 193.031 84.112C192.676 83.696 192.212 83.488 191.64 83.488C191.354 83.488 191.09 83.5443 190.847 83.657C190.613 83.7697 190.414 83.9257 190.249 84.125C190.076 84.333 189.941 84.5843 189.846 84.879C189.759 85.165 189.716 85.4813 189.716 85.828ZM196.262 82.656H197.354V83.592H197.406C197.588 83.228 197.844 82.955 198.173 82.773C198.503 82.591 198.906 82.5 199.382 82.5C199.694 82.5 199.989 82.5477 200.266 82.643C200.552 82.7297 200.804 82.877 201.02 83.085C201.237 83.293 201.406 83.566 201.527 83.904C201.657 84.242 201.722 84.658 201.722 85.152V89H200.578V85.308C200.578 84.632 200.444 84.1597 200.175 83.891C199.915 83.6223 199.564 83.488 199.122 83.488C198.88 83.488 198.654 83.54 198.446 83.644C198.238 83.748 198.056 83.8953 197.9 84.086C197.744 84.2767 197.623 84.5107 197.536 84.788C197.45 85.0567 197.406 85.3643 197.406 85.711V89H196.262V82.656ZM205.264 86.088C205.264 85.7847 205.295 85.5203 205.355 85.295C205.416 85.061 205.498 84.853 205.602 84.671C205.706 84.4977 205.823 84.346 205.953 84.216C206.092 84.086 206.235 83.9647 206.382 83.852L206.668 83.631C206.885 83.4577 207.076 83.2757 207.24 83.085C207.414 82.8857 207.5 82.6213 207.5 82.292C207.5 81.8933 207.362 81.5597 207.084 81.291C206.816 81.0223 206.452 80.888 205.992 80.888C205.698 80.888 205.442 80.94 205.225 81.044C205.009 81.1393 204.831 81.2693 204.692 81.434C204.554 81.6073 204.45 81.811 204.38 82.045C204.311 82.2703 204.276 82.5087 204.276 82.76H203.132C203.132 82.396 203.189 82.0407 203.301 81.694C203.414 81.3473 203.587 81.0397 203.821 80.771C204.055 80.511 204.35 80.303 204.705 80.147C205.069 79.9823 205.498 79.9 205.992 79.9C206.382 79.9 206.742 79.9563 207.071 80.069C207.409 80.173 207.7 80.3247 207.942 80.524C208.176 80.732 208.358 80.979 208.488 81.265C208.627 81.551 208.696 81.876 208.696 82.24C208.696 82.5 208.662 82.734 208.592 82.942C208.532 83.1413 208.449 83.319 208.345 83.475C208.241 83.631 208.12 83.774 207.981 83.904C207.843 84.0253 207.704 84.1423 207.565 84.255L207.279 84.476C207.037 84.658 206.829 84.8573 206.655 85.074C206.491 85.2907 206.408 85.5767 206.408 85.932V86.452H205.264V86.088ZM205.16 87.596H206.512V89H205.16V87.596Z" fill="#606060"/>
<rect x="32" y="104" width="139" height="32" rx="3" fill="#EB5424"/>
<path d="M55.0899 123L54.9249 122.087H54.9029C54.7782 122.256 54.6352 122.406 54.4739 122.538C54.3199 122.67 54.1476 122.78 53.9569 122.868C53.7662 122.956 53.5536 123.022 53.3189 123.066C53.0842 123.11 52.8312 123.132 52.5599 123.132C51.9952 123.132 51.4782 123.037 51.0089 122.846C50.5469 122.648 50.1472 122.373 49.8099 122.021C49.4799 121.662 49.2269 121.244 49.0509 120.767C48.8749 120.29 48.7869 119.773 48.7869 119.216C48.7869 118.651 48.8786 118.131 49.0619 117.654C49.2452 117.177 49.5056 116.763 49.8429 116.411C50.1876 116.052 50.5982 115.777 51.0749 115.586C51.5589 115.395 52.0906 115.3 52.6699 115.3C53.1319 115.3 53.5572 115.362 53.9459 115.487C54.3346 115.612 54.6756 115.784 54.9689 116.004C55.2622 116.224 55.4969 116.484 55.6729 116.785C55.8562 117.078 55.9809 117.397 56.0469 117.742H54.5729C54.5216 117.581 54.4446 117.43 54.3419 117.291C54.2392 117.144 54.1072 117.02 53.9459 116.917C53.7919 116.807 53.6049 116.723 53.3849 116.664C53.1722 116.598 52.9339 116.565 52.6699 116.565C52.3179 116.565 51.9952 116.631 51.7019 116.763C51.4086 116.888 51.1556 117.067 50.9429 117.302C50.7376 117.537 50.5799 117.819 50.4699 118.149C50.3599 118.472 50.3049 118.827 50.3049 119.216C50.3049 119.605 50.3599 119.964 50.4699 120.294C50.5799 120.617 50.7376 120.895 50.9429 121.13C51.1556 121.365 51.4049 121.548 51.6909 121.68C51.9842 121.805 52.3032 121.867 52.6479 121.867C52.9339 121.867 53.2016 121.83 53.4509 121.757C53.7002 121.676 53.9202 121.559 54.1109 121.405C54.3016 121.251 54.4482 121.064 54.5509 120.844C54.6609 120.624 54.7159 120.375 54.7159 120.096V120.041H52.6699V118.919H56.0249V123H55.0899ZM58.6828 123V115.432H64.1718V116.653H60.1568V118.556H63.3908V119.722H60.1568V121.779H64.2708V123H58.6828ZM65.8756 116.664V115.432H72.4756V116.664H69.9126V123H68.4386V116.664H65.8756ZM76.9042 116.664V115.432H83.5042V116.664H80.9412V123H79.4672V116.664H76.9042ZM85.4022 123V115.432H86.8762V118.545H90.4402V115.432H91.9142V123H90.4402V119.799H86.8762V123H85.4022ZM94.6119 123V115.432H100.101V116.653H96.0859V118.556H99.3199V119.722H96.0859V121.779H100.2V123H94.6119ZM105.898 123V115.432H109.143C109.591 115.432 109.987 115.487 110.331 115.597C110.683 115.7 110.977 115.854 111.211 116.059C111.453 116.257 111.633 116.503 111.75 116.796C111.875 117.089 111.937 117.419 111.937 117.786C111.937 118.057 111.901 118.314 111.827 118.556C111.761 118.791 111.662 119.007 111.53 119.205C111.398 119.396 111.23 119.568 111.024 119.722C110.826 119.869 110.599 119.986 110.342 120.074L112.223 123H110.617L108.879 120.25H107.372V123H105.898ZM109.077 116.62H107.372V119.095H109.077C109.297 119.095 109.492 119.066 109.66 119.007C109.836 118.941 109.979 118.849 110.089 118.732C110.207 118.615 110.295 118.479 110.353 118.325C110.412 118.164 110.441 117.988 110.441 117.797C110.441 117.614 110.412 117.452 110.353 117.313C110.295 117.166 110.207 117.042 110.089 116.939C109.972 116.836 109.829 116.759 109.66 116.708C109.492 116.649 109.297 116.62 109.077 116.62ZM114.453 123V115.432H119.942V116.653H115.927V118.556H119.161V119.722H115.927V121.779H120.041V123H114.453ZM122.405 123V115.432H125.661C126.101 115.432 126.497 115.494 126.849 115.619C127.201 115.736 127.495 115.905 127.729 116.125C127.971 116.345 128.155 116.609 128.279 116.917C128.404 117.225 128.466 117.562 128.466 117.929C128.466 118.303 128.404 118.651 128.279 118.974C128.155 119.289 127.971 119.564 127.729 119.799C127.495 120.026 127.201 120.206 126.849 120.338C126.497 120.463 126.101 120.525 125.661 120.525H123.879V123H122.405ZM125.529 116.62H123.879V119.337H125.529C125.764 119.337 125.969 119.304 126.145 119.238C126.329 119.172 126.479 119.077 126.596 118.952C126.721 118.827 126.813 118.681 126.871 118.512C126.937 118.343 126.97 118.156 126.97 117.951C126.97 117.753 126.937 117.573 126.871 117.412C126.813 117.243 126.721 117.1 126.596 116.983C126.479 116.866 126.329 116.778 126.145 116.719C125.969 116.653 125.764 116.62 125.529 116.62ZM130.381 119.216C130.381 118.659 130.469 118.142 130.645 117.665C130.828 117.181 131.089 116.763 131.426 116.411C131.771 116.059 132.181 115.788 132.658 115.597C133.142 115.399 133.67 115.3 134.242 115.3C134.807 115.3 135.327 115.399 135.804 115.597C136.281 115.788 136.688 116.059 137.025 116.411C137.37 116.763 137.634 117.181 137.817 117.665C138 118.142 138.092 118.659 138.092 119.216C138.092 119.773 138 120.294 137.817 120.778C137.634 121.255 137.37 121.669 137.025 122.021C136.688 122.373 136.281 122.648 135.804 122.846C135.327 123.037 134.807 123.132 134.242 123.132C133.67 123.132 133.142 123.037 132.658 122.846C132.181 122.648 131.771 122.373 131.426 122.021C131.089 121.669 130.828 121.255 130.645 120.778C130.469 120.294 130.381 119.773 130.381 119.216ZM131.899 119.216C131.899 119.597 131.954 119.953 132.064 120.283C132.174 120.606 132.332 120.888 132.537 121.13C132.75 121.365 132.999 121.548 133.285 121.68C133.578 121.805 133.897 121.867 134.242 121.867C134.587 121.867 134.902 121.801 135.188 121.669C135.474 121.537 135.72 121.354 135.925 121.119C136.138 120.877 136.299 120.595 136.409 120.272C136.519 119.949 136.574 119.597 136.574 119.216C136.574 118.835 136.519 118.483 136.409 118.16C136.299 117.837 136.138 117.559 135.925 117.324C135.72 117.082 135.474 116.895 135.188 116.763C134.902 116.631 134.587 116.565 134.242 116.565C133.897 116.565 133.578 116.631 133.285 116.763C132.999 116.888 132.75 117.071 132.537 117.313C132.332 117.548 132.174 117.83 132.064 118.16C131.954 118.483 131.899 118.835 131.899 119.216ZM140.384 123V115.432H143.629C144.077 115.432 144.473 115.487 144.817 115.597C145.169 115.7 145.463 115.854 145.697 116.059C145.939 116.257 146.119 116.503 146.236 116.796C146.361 117.089 146.423 117.419 146.423 117.786C146.423 118.057 146.387 118.314 146.313 118.556C146.247 118.791 146.148 119.007 146.016 119.205C145.884 119.396 145.716 119.568 145.51 119.722C145.312 119.869 145.085 119.986 144.828 120.074L146.709 123H145.103L143.365 120.25H141.858V123H140.384ZM143.563 116.62H141.858V119.095H143.563C143.783 119.095 143.978 119.066 144.146 119.007C144.322 118.941 144.465 118.849 144.575 118.732C144.693 118.615 144.781 118.479 144.839 118.325C144.898 118.164 144.927 117.988 144.927 117.797C144.927 117.614 144.898 117.452 144.839 117.313C144.781 117.166 144.693 117.042 144.575 116.939C144.458 116.836 144.315 116.759 144.146 116.708C143.978 116.649 143.783 116.62 143.563 116.62ZM148.007 116.664V115.432H154.607V116.664H152.044V123H150.57V116.664H148.007Z" fill="white"/>
</svg>
