<?xml version="1.0" encoding="UTF-8"?>
<svg width="14px" height="8px" viewBox="0 0 14 8" version="1.1" xmlns="http://www.w3.org/2000/svg" xmlns:xlink="http://www.w3.org/1999/xlink">
    <!-- Generator: Sketch 52.6 (67491) - http://www.bohemiancoding.com/sketch -->
    <title>icon/chevron-down</title>
    <desc>Created with Sketch.</desc>
    <defs>
        <path d="M16.6592784,7.90253155 L10.5902062,14.520171 C10.5713323,14.5479284 10.5777161,14.5842906 10.553291,14.6089946 C10.4436558,14.7189139 10.2984933,14.7663791 10.154996,14.7597173 C10.0128866,14.7652688 9.86966693,14.7172485 9.76086439,14.6087171 C9.73671689,14.5842906 9.74337827,14.5484835 9.72478192,14.5215589 L3.65487708,7.90364185 C3.44837431,7.69684929 3.44837431,7.36237273 3.65487708,7.15558017 C3.86137986,6.94934276 4.19583664,6.94934276 4.40261697,7.15558017 L10.1563838,13.4295831 L15.9109833,7.1553026 C16.1174861,6.94823247 16.4522205,6.94823247 16.6587232,7.1553026 C16.8655036,7.36126244 16.8655036,7.69601656 16.6592784,7.90253155 L16.6592784,7.90253155 Z" id="path-1"></path>
    </defs>
    <g id="Mobile-(360x620px)" stroke="none" stroke-width="1" fill="none" fill-rule="evenodd">
        <g id="07-Mobile-Blog-Post-TOC-" transform="translate(-327.000000, -21.000000)">
            <g id="Group">
                <g id="icon/chevron-down" transform="translate(324.000000, 14.000000)">
                    <mask id="mask-2" fill="white">
                        <use xlink:href="#path-1"></use>
                    </mask>
                    <use id="Shape" fill="#000000" fill-rule="evenodd" xlink:href="#path-1"></use>
                </g>
            </g>
        </g>
    </g>
</svg>