<?xml version="1.0" encoding="UTF-8"?>
<svg width="32px" height="32px" viewBox="0 0 32 32" version="1.1" xmlns="http://www.w3.org/2000/svg" xmlns:xlink="http://www.w3.org/1999/xlink">
    <!-- Generator: Sketch 52.6 (67491) - http://www.bohemiancoding.com/sketch -->
    <title>Group</title>
    <desc>Created with Sketch.</desc>
    <defs>
        <path d="M12.9274227,5.52202524 L8.07216495,10.8161368 C8.05706582,10.8383427 8.06217288,10.8674325 8.04263283,10.8871957 C7.95492466,10.9751311 7.83879461,11.0131032 7.72399683,11.0077738 C7.61030928,11.012215 7.49573354,10.9737988 7.40869151,10.8869737 C7.38937351,10.8674325 7.39470262,10.8387868 7.37982554,10.8172471 L2.52390167,5.52291348 C2.35869944,5.35747943 2.35869944,5.08989819 2.52390167,4.92446414 C2.68910389,4.75947421 2.95666931,4.75947421 3.12209358,4.92446414 L7.72510706,9.9436665 L12.3287867,4.92424208 C12.4939889,4.75858597 12.7617764,4.75858597 12.9269786,4.92424208 C13.0924029,5.08900995 13.0924029,5.35681325 12.9274227,5.52202524 L12.9274227,5.52202524 Z" id="path-1"></path>
    </defs>
    <g id="Mobile-(360x620px)" stroke="none" stroke-width="1" fill="none" fill-rule="evenodd">
        <g id="07-Mobile-Blog-Post-(No-Comments)" transform="translate(-312.000000, -104.000000)">
            <g id="Comments" transform="translate(16.000000, 104.000000)">
                <g id="Group" transform="translate(296.000000, 0.000000)">
                    <g id="Oval-3" fill="#E5E5E5" fill-rule="nonzero">
                        <g id="Oval-2">
                            <circle id="Oval" cx="16" cy="16" r="16"></circle>
                        </g>
                    </g>
                    <g id="icon/chevron-up" transform="translate(16.000000, 16.000000) scale(1, -1) translate(-16.000000, -16.000000) translate(8.000000, 8.000000)">
                        <mask id="mask-2" fill="white">
                            <use xlink:href="#path-1"></use>
                        </mask>
                        <use id="Shape" fill="#000000" fill-rule="evenodd" transform="translate(7.725551, 7.904132) scale(1, -1) translate(-7.725551, -7.904132) " xlink:href="#path-1"></use>
                    </g>
                </g>
            </g>
        </g>
    </g>
</svg>