<?xml version="1.0" encoding="UTF-8"?>
<svg width="40px" height="40px" viewBox="0 0 40 40" version="1.1" xmlns="http://www.w3.org/2000/svg" xmlns:xlink="http://www.w3.org/1999/xlink">
    <!-- Generator: Sketch 52.6 (67491) - http://www.bohemiancoding.com/sketch -->
    <title>Group 7</title>
    <desc>Created with Sketch.</desc>
    <g id="Author-Page" stroke="none" stroke-width="1" fill="none" fill-rule="evenodd">
        <g id="06-Author-Page" transform="translate(-1136.000000, -160.000000)">
            <g id="Author-Hero">
                <g id="Author-Info" transform="translate(118.000000, 159.000000)">
                    <g id="Group-2" transform="translate(970.000000, 1.000000)">
                        <g id="Group-7" transform="translate(48.000000, 0.000000)">
                            <circle id="Oval" stroke-opacity="0.2" stroke="#000000" fill="#FFFFFF" fill-rule="nonzero" cx="20" cy="20" r="19.5"></circle>
                            <g id="icon/brands/brand-facebook" opacity="0.5" transform="translate(12.000000, 12.000000)" fill="#000000">
                                <path d="M3.42928889,8.61538462 L5.82802222,8.61538462 L5.82802222,15.9076923 L8.83786667,15.9076923 L8.83786667,8.61538462 L11.8477111,8.61538462 L11.8477111,5.6 L8.83786667,5.6 L8.83786667,4.06153846 C8.83786667,3.79987692 8.89897778,3.6 9.0212,3.41538462 C9.15882222,3.24603077 9.2962,3.16923077 9.44897778,3.16923077 L11.8477111,3.16923077 L11.8477111,0.153846154 L9.44897778,0.153846154 C8.44064444,0.153846154 7.60024444,0.538584615 6.89746667,1.30781538 C6.17928889,2.07704615 5.82802222,3.00012308 5.82802222,4.09255385 L5.82802222,5.60024615 L3.42928889,5.60024615 L3.42928889,8.61563077 L3.42928889,8.61538462 Z" id="Shape"></path>
                            </g>
                        </g>
                    </g>
                </g>
            </g>
        </g>
    </g>
</svg>