<?xml version="1.0" encoding="UTF-8"?>
<svg width="89px" height="32px" viewBox="0 0 89 32" version="1.1" xmlns="http://www.w3.org/2000/svg" xmlns:xlink="http://www.w3.org/1999/xlink">
    <!-- Generator: Sketch 53.2 (72643) - https://sketchapp.com -->
    <title>Auth0 Logo</title>
    <desc>Created with Sketch.</desc>
    <g id="Symbols" stroke="none" stroke-width="1" fill="none" fill-rule="evenodd">
        <g id="Header-/-Main---Dark" transform="translate(-24.000000, -24.000000)">
            <g id="Header-/-Main---Light">
                <g id="Dev" transform="translate(24.000000, 24.000000)">
                    <g id="Catagories">
                        <g id="Group-2">
                            <g id="Auth0-Logo/White">
                                <g id="Auth0-Logo">
                                    <path d="M28.0222324,9.8683871 L24.7930038,5.5067062e-14 L14.3595408,5.5067062e-14 L17.5843215,9.8683871 L28.0222324,9.8683871 Z M14.3595408,5.5067062e-14 L3.92756052,5.5067062e-14 L0.704262456,9.8683871 L11.1362427,9.8683871 L14.3595408,5.5067062e-14 Z M0.704262456,9.8683871 L0.704262456,9.8683871 C-1.21906634,15.7527459 0.886876654,22.1996074 5.9202526,25.8359447 L9.14355066,15.9675576 L0.704262456,9.8683871 Z M28.0163018,9.8683871 L28.0163018,9.8683871 L19.571083,15.9675576 L22.7958637,25.8359447 L22.7958637,25.8359447 C27.8322708,22.2017984 29.9423892,15.7549824 28.0222324,9.8683871 L28.0163018,9.8683871 Z M5.9202526,25.8359447 L5.9202526,25.8359447 L14.3595408,31.9351152 L22.8003117,25.8359447 L14.3595408,19.7367742 L5.9202526,25.8359447 Z" id="Badge" fill="#EB5424" fill-rule="nonzero"></path>
                                    <path d="M44.1075869,17.5985253 L40.2289541,17.5985253 C40.200744,17.5985878 40.1741202,17.5855546 40.1569623,17.563283 C40.1398045,17.5410114 40.1340779,17.5120525 40.1414773,17.484977 L42.0807937,10.8328111 C42.0924957,10.7944464 42.1279622,10.7681396 42.1682705,10.7679263 C42.2089089,10.7671383 42.2449161,10.7938461 42.2557473,10.8328111 L44.1950637,17.484977 C44.2036108,17.5118538 44.1980433,17.5412023 44.1802372,17.5631336 C44.163126,17.5858335 44.1361081,17.5989953 44.1075869,17.5985253 Z M45.9090162,23.36 L48.4369477,23.36 L44.592416,10.1751152 C44.2721802,9.10988019 43.2868791,8.38004568 42.1690119,8.38004568 C41.0511446,8.38004568 40.0658435,9.10988019 39.7456077,10.1751152 L35.8995933,23.3614747 L38.4290076,23.3614747 L39.5410009,19.5450691 C39.5527029,19.5067044 39.5881694,19.4803976 39.6284777,19.4801843 L44.7080633,19.4801843 C44.7487017,19.4793963 44.7847089,19.5061042 44.7955402,19.5450691 L45.9090162,23.36 Z M60.1143606,15.7876498 L61.5970184,15.7876498 C61.6208677,15.7872544 61.6438777,15.7964014 61.6608829,15.8130375 C61.6778881,15.8296737 61.6874638,15.8524051 61.6874605,15.876129 L61.6874605,21.077235 C61.6972544,22.4531833 62.8245401,23.5618528 64.2079787,23.556129 C64.709883,23.5564801 65.209224,23.4849631 65.6906365,23.3437788 L65.6906365,21.636129 C65.4118969,21.6597235 65.0975734,21.6759447 64.8647962,21.6759447 C64.4553715,21.6759447 64.1234673,21.3458321 64.1234673,20.9386175 L64.1234673,15.876129 C64.1242767,15.8270257 64.1645329,15.7876432 64.2139094,15.7876498 L65.6965672,15.7876498 L65.6965672,13.9074654 L64.1990828,13.9074654 C64.1494656,13.9066757 64.1094347,13.8668609 64.1086407,13.8175115 L64.1086407,10.6956682 L61.6785645,10.6956682 L61.6785645,13.8175115 C61.6785645,13.8671917 61.6380722,13.9074654 61.5881224,13.9074654 L60.1054646,13.9074654 L60.1143606,15.7876498 Z M74.1328901,23.36 L76.5629662,23.36 L76.5629662,16.8317051 C76.5499105,15.1010041 75.1316885,13.706924 73.3915612,13.7142857 C72.3889027,13.7333157 71.4121773,14.0344661 70.5745113,14.5828571 C70.5455313,14.5991544 70.5100839,14.5991544 70.4811039,14.5828571 C70.4519526,14.5675587 70.4336951,14.537483 70.4336589,14.5047005 L70.4336589,8.57364055 L67.9932041,8.57364055 L67.9932041,23.36 L70.4262456,23.36 L70.4262456,16.2919816 C70.4260102,16.2583456 70.4449712,16.227486 70.4751733,16.2123502 C70.9318319,15.9808295 71.8332878,15.5915207 72.7362264,15.5915207 C73.1060425,15.5900963 73.4612653,15.7349196 73.7236765,15.9941014 C73.9843043,16.2481849 74.1316936,16.595548 74.1328901,16.9585253 L74.1328901,23.3541014 L74.1328901,23.36 Z M49.7950623,13.9074654 L49.7950623,20.4357604 C49.8073056,22.1684312 51.2273344,23.5643028 52.9694326,23.556129 C54.091031,23.5366737 55.1775239,23.1639009 56.0726354,22.4914286 C56.0963779,22.4736577 56.1272051,22.4681826 56.1556642,22.476682 C56.1842391,22.485022 56.2065853,22.5072476 56.2149705,22.5356682 L56.4714703,23.36 L58.3633417,23.36 L58.3633417,13.9074654 L55.9332656,13.9074654 L55.9332656,20.9754839 C55.9332234,21.0094512 55.9136339,21.040396 55.8828552,21.0551152 C55.4261966,21.2866359 54.5247406,21.6759447 53.621802,21.6759447 C52.8554449,21.6792163 52.2308505,21.0652477 52.2251384,20.3030415 L52.2251384,13.9074654 L49.7950623,13.9074654 Z M83.6634144,21.6774194 C82.9220855,21.6774194 82.3290224,21.2615668 81.8590199,20.4062673 C81.2941273,19.3740092 80.9827691,17.7976037 80.9827691,15.9690323 C80.9827691,14.1404608 81.2941273,12.5640553 81.8590199,11.5303226 C82.3260571,10.675023 82.9161549,10.2591705 83.6634144,10.2591705 C84.4106739,10.2591705 84.9978064,10.675023 85.4692916,11.5303226 C86.0341842,12.5625806 86.3440597,14.1404608 86.3440597,15.9690323 C86.3440597,17.7976037 86.0341842,19.3725346 85.4692916,20.4062673 C85.0007718,21.2600922 84.4106739,21.6774194 83.6634144,21.6774194 Z M83.6634144,8.37898618 C82.1006931,8.37898618 80.779645,9.10304147 79.8411226,10.4729954 C78.9026002,11.8429493 78.4162885,13.7349309 78.4162885,15.9690323 C78.4162885,18.2031336 78.9100135,20.0980645 79.8411226,21.4635945 C80.7722317,22.8291244 82.1006931,23.5576037 83.6634144,23.5576037 C85.2261357,23.5576037 86.5486665,22.8335484 87.4871889,21.4635945 C88.4257113,20.0936406 88.912023,18.201659 88.912023,15.9690323 C88.912023,13.7364055 88.418298,11.84 87.4871889,10.4729954 C86.5560798,9.10599078 85.2261357,8.37751152 83.6634144,8.37751152 L83.6634144,8.37898618 Z" id="Auth0" fill="#FFFFFF"></path>
                                </g>
                            </g>
                        </g>
                    </g>
                </g>
            </g>
        </g>
    </g>
</svg>