<?xml version="1.0" encoding="UTF-8"?>
<svg width="16px" height="16px" viewBox="0 0 16 16" version="1.1" xmlns="http://www.w3.org/2000/svg" xmlns:xlink="http://www.w3.org/1999/xlink">
    <!-- Generator: Sketch 52.6 (67491) - http://www.bohemiancoding.com/sketch -->
    <title>icon/chevron-down</title>
    <desc>Created with Sketch.</desc>
    <defs>
        <path d="M10.548979,9.77685747 L17.3929917,16.6212748 C17.6064334,16.8350067 17.6064334,17.1808638 17.3929917,17.393763 C17.17955,17.6074949 16.8337133,17.6074949 16.6205492,17.393763 L9.77653648,10.5493456 L2.93252379,17.393763 C2.71908208,17.6074949 2.37324544,17.6074949 2.16008128,17.393763 C1.94663957,17.1805862 1.94663957,16.8347291 2.16008128,16.6212748 L9.00437153,9.77685747 L2.16008128,2.93299529 C1.94663957,2.71981853 1.94663957,2.37340629 2.16008128,2.16050711 C2.373523,1.94649763 2.71935964,1.94649763 2.93252379,2.16050711 L9.77653648,9.00464687 L16.6205492,2.16050711 C16.8339909,1.94649763 17.1798275,1.94649763 17.3929917,2.16050711 C17.6064334,2.37368387 17.6064334,2.7200961 17.3929917,2.93299529 L10.548979,9.77685747 L10.548979,9.77685747 Z" id="path-1"></path>
    </defs>
    <g id="Mobile-(360x620px)" stroke="none" stroke-width="1" fill="none" fill-rule="evenodd">
        <g id="07-Mobile-Blog-Post-TOC-Open" transform="translate(-326.000000, -16.000000)">
            <g id="Content">
                <g id="icon/close" transform="translate(324.000000, 14.000000)">
                    <mask id="mask-2" fill="white">
                        <use xlink:href="#path-1"></use>
                    </mask>
                    <use id="Shape" fill="#000000" fill-rule="evenodd" xlink:href="#path-1"></use>
                </g>
            </g>
        </g>
    </g>
</svg>