<?xml version="1.0" encoding="UTF-8"?>
<svg width="31px" height="25px" viewBox="0 0 31 25" version="1.1" xmlns="http://www.w3.org/2000/svg" xmlns:xlink="http://www.w3.org/1999/xlink">
    <!-- Generator: Sketch 52.6 (67491) - http://www.bohemiancoding.com/sketch -->
    <title>Budicon-Outline/Interface/cross-ui</title>
    <desc>Created with Sketch.</desc>
    <defs>
        <path d="M34.7650278,19.5398575 C34.8927042,19.7002952 34.9798573,19.8846043 34.9976209,20.1011119 C34.9981761,20.1233178 35.0142744,20.1416377 35.0137193,20.1632885 C35.0137193,20.16884 35.0176051,20.1732811 35.0176051,20.1782775 C35.0176051,20.1849392 35.0148295,20.1899356 35.0142744,20.1954871 C35.0148295,20.2093657 35.0070579,20.2199136 35.0065028,20.2332371 C34.99318,20.4963772 34.8893735,20.7317598 34.7239492,20.9155138 C34.7100714,20.9305028 34.7161776,20.9543741 34.7011895,20.9693631 C34.6862014,20.9849072 34.6628866,20.9782455 34.6467883,20.991569 C34.6329104,21.0043374 34.6090404,21.0015617 34.5934972,21.0143301 L22.4620143,32.0401207 C22.0395718,32.4631433 21.3545599,32.4631433 20.9321174,32.0401207 C20.5096749,31.6170981 20.5096749,30.9342663 20.9321174,30.5123539 L31.08295,21.2846871 L5.10689929,21.2846871 C4.49516257,21.2846871 4,20.7883849 4,20.1782775 C4,19.56817 4.49571768,19.0718679 5.10689929,19.0718679 L31.08295,19.0718679 L20.9321174,9.84531131 C20.5096749,9.42284383 20.5096749,8.73945688 20.9321174,8.31643425 C21.3545599,7.89452192 22.0395718,7.89452192 22.4620143,8.31643425 L34.5324346,19.2878204 C34.5501983,19.3005888 34.5590801,19.3222396 34.5762887,19.3355631 C34.6134814,19.3649859 34.6662173,19.3533278 34.7006344,19.3871918 C34.7439334,19.4304934 34.7306106,19.4926699 34.7650278,19.5398575 L34.7650278,19.5398575 Z" id="path-1"></path>
    </defs>
    <g id="Search" stroke="none" stroke-width="1" fill="none" fill-rule="evenodd">
        <g id="03-Search-Typing-(A)" transform="translate(-1284.000000, -128.000000)">
            <g id="Search" transform="translate(0.000000, 80.000000)">
                <g id="icon/arrow-right" transform="translate(1280.000000, 40.000000)">
                    <mask id="mask-2" fill="white">
                        <use xlink:href="#path-1"></use>
                    </mask>
                    <use id="Shape" fill="#000000" fill-rule="evenodd" xlink:href="#path-1"></use>
                </g>
            </g>
        </g>
    </g>
</svg>