<?xml version="1.0" encoding="UTF-8"?>
<svg width="26px" height="26px" viewBox="0 0 26 26" version="1.1" xmlns="http://www.w3.org/2000/svg" xmlns:xlink="http://www.w3.org/1999/xlink">
    <!-- Generator: Sketch 52.6 (67491) - http://www.bohemiancoding.com/sketch -->
    <title>Budicon-Outline/Interface/search Copy</title>
    <desc>Created with Sketch.</desc>
    <g id="Symbols" stroke="none" stroke-width="1" fill="none" fill-rule="evenodd">
        <g id="Header-/-Main---Light" transform="translate(-1049.000000, -28.000000)" fill="#606060" fill-rule="nonzero" stroke="#606060" stroke-width="0.5">
            <g id="Dev">
                <g transform="translate(227.000000, 24.000000)">
                    <g id="Budicon-Outline/Interface/search" transform="translate(823.000000, 4.000000)">
                        <path d="M23.9285063,24.2218063 L16.6261063,16.9191063 C20.0852908,13.0766763 19.8531687,7.17777162 16.1027483,3.61903979 C12.3523278,0.0603079587 6.44936519,0.137699723 2.79353245,3.79353245 C-0.862300277,7.44936519 -0.939692041,13.3523278 2.61903979,17.1027483 C6.17777162,20.8531687 12.0766763,21.0852908 15.9191063,17.6261063 L23.2215063,24.9288063 C23.4176958,25.1182924 23.7295487,25.1155825 23.9224156,24.9227156 C24.1152825,24.7298487 24.1179924,24.4179958 23.9285063,24.2218063 Z M9.57500631,19.0753063 C4.88058594,19.0753063 1.07500631,15.2697267 1.07500631,10.5753063 C1.07500631,5.88088594 4.88058594,2.07530631 9.57500631,2.07530631 C14.2694267,2.07530631 18.0750063,5.88088594 18.0750063,10.5753063 C18.0694959,15.2674423 14.2671423,19.0697959 9.57500631,19.0753063 Z" id="Shape"></path>
                    </g>
                </g>
            </g>
        </g>
    </g>
</svg>