<?xml version="1.0" encoding="UTF-8"?>
<svg width="40px" height="40px" viewBox="0 0 40 40" version="1.1" xmlns="http://www.w3.org/2000/svg" xmlns:xlink="http://www.w3.org/1999/xlink">
    <!-- Generator: Sketch 52.6 (67491) - http://www.bohemiancoding.com/sketch -->
    <title>Group 6</title>
    <desc>Created with Sketch.</desc>
    <g id="Author-Page" stroke="none" stroke-width="1" fill="none" fill-rule="evenodd">
        <g id="06-Author-Page" transform="translate(-1088.000000, -160.000000)">
            <g id="Author-Hero">
                <g id="Author-Info" transform="translate(118.000000, 159.000000)">
                    <g id="Group-2" transform="translate(970.000000, 1.000000)">
                        <g id="Group-6">
                            <circle id="Oval" stroke-opacity="0.2" stroke="#000000" fill="#FFFFFF" fill-rule="nonzero" cx="20" cy="20" r="19.5"></circle>
                            <g id="icon/brands/brand-twitter" opacity="0.5" transform="translate(12.000000, 12.000000)" fill="#000000">
                                <path d="M0,12.9624449 C1.54918668,13.9250148 3.22535587,14.4 5.02850757,14.4 C6.19674671,14.4 7.30159617,14.2250055 8.31745629,13.8624168 C9.3333164,13.4998281 10.2095973,13.0124434 10.9332961,12.3998625 C11.6697947,11.774882 12.2921106,11.0749039 12.8126373,10.2873285 C13.333164,9.49975313 13.7269114,8.67477891 13.9808764,7.79980626 C14.2348415,6.93723321 14.3746238,6.07486016 14.3746238,5.21228712 L14.3746238,4.7873004 C15.0349329,4.31231524 15.5810593,3.74973282 16,3.11235274 C15.3776841,3.37494453 14.7555714,3.54993906 14.1206588,3.62493672 C14.8317609,3.21234961 15.3142944,2.61236836 15.5556628,1.83739258 C14.9207502,2.21238086 14.2222448,2.47497266 13.4731495,2.62496797 C12.8254371,1.94998906 12.0255489,1.6 11.0730784,1.6 C10.171401,1.6 9.39690925,1.92498984 8.74919684,2.54997031 C8.11428426,3.18755039 7.78412973,3.93752695 7.78412973,4.82489922 C7.78412973,5.03749258 7.82232607,5.28748477 7.88571574,5.57487579 C6.53970108,5.49987813 5.2824726,5.17488828 4.1016368,4.57490703 C2.93339767,3.9873254 1.93013422,3.1873504 1.11744613,2.18738164 C0.812688093,2.69996563 0.660309075,3.23734883 0.660309075,3.81233086 C0.660309075,4.37491328 0.800091427,4.88729727 1.05405646,5.36228243 C1.32082132,5.83726759 1.67637236,6.21225587 2.13350942,6.51224649 C1.60018285,6.49964689 1.0922528,6.36225118 0.635115745,6.11225899 L0.635115745,6.14985782 C0.635115745,6.9248336 0.889080774,7.61241211 1.38441417,8.19979376 C1.87974756,8.79977501 2.51466013,9.16236368 3.27655522,9.31235899 C2.99719369,9.38735665 2.70503232,9.42495547 2.40027428,9.42495547 C2.17170576,9.42495547 1.96853373,9.41235586 1.79075821,9.37495703 C2.00673007,10.0249367 2.38767762,10.5499203 2.94640068,10.974907 C3.51792358,11.3874941 4.15283615,11.5998875 4.86393824,11.6124871 C3.6703026,12.5374582 2.31148811,13.0000437 0.775101269,13.0000437 C0.52113624,13.0000437 0.254371373,12.9874441 0.000406344046,12.9624449 L0,12.9624449 Z" id="Shape"></path>
                            </g>
                        </g>
                    </g>
                </g>
            </g>
        </g>
    </g>
</svg>